<svg clip-rule="evenodd" fill-rule="evenodd" stroke-linejoin="round" stroke-miterlimit="1.5" viewBox="0 0 780 714" xmlns="http://www.w3.org/2000/svg"><path d="m1368.54 132.654c0-21.334-17.32-38.654-38.65-38.654h-309.24c-21.33 0-38.65 17.32-38.65 38.654v581.692c0 21.334 17.32 38.654 38.65 38.654h309.24c21.33 0 38.65-17.32 38.65-38.654z" fill="#fce9e8" transform="translate(-982 -46.7121)"/><path d="m1368.54 132.654c0-21.334-17.32-38.654-38.65-38.654h-309.24c-21.33 0-38.65 17.32-38.65 38.654v581.692c0 21.334 17.32 38.654 38.65 38.654h309.24c21.33 0 38.65-17.32 38.65-38.654z" fill="#e8effc" transform="translate(-589.46 -46.7121)"/><g transform="matrix(1.00000349328 0 0 1 .000519218 0)"><path d="m145 545.788-25 12.5 25 12.5z" fill="#808080"/><path d="m140 558.288h517.081" fill="none" stroke="#808080" stroke-dasharray="16.67 16.67 8.33 0" stroke-width="8.33"/></g><path d="m700 600 300-200" fill="none" stroke="#16b338" stroke-linecap="round" stroke-width="9.78" transform="matrix(0 -.672001 1 0 -300 830.2889)"/><path d="m400 400 300 200" fill="none" stroke="#c7b218" stroke-linecap="round" stroke-width="9.78" transform="matrix(0 -.672001 -1 0 1077.08 830.2889)"/><g><path d="m112.5 653.288-12.5 25-12.5-25z" fill="#808080"/><path d="m100 558.288v100" fill="none" stroke="#808080" stroke-linecap="round" stroke-width="8.33"/></g><g><path d="m689.581 653.288-12.5 25-12.5-25z" fill="#808080"/><path d="m677.081 558.288v100" fill="none" stroke="#808080" stroke-linecap="round" stroke-width="8.33"/></g><circle cx="400" cy="400" fill="#e84441" r="20" transform="matrix(0 -1 1 0 -300 958.2879)"/><circle cx="400" cy="400" fill="#4176e8" r="20" transform="matrix(0 -1 -1 0 1077.08 958.2879)"/><circle cx="400" cy="400" fill="#16b338" r="20" transform="matrix(0 -1 1 0 -100 758.2879)"/><circle cx="400" cy="400" fill="#c7b218" r="20" transform="matrix(0 -1 -1 0 877.08 758.2879)"/><circle cx="400" cy="400" fill="#e84441" r="20" transform="matrix(0 -1 1 0 -300 558.2879)"/><circle cx="400" cy="400" fill="#4176e8" r="20" transform="matrix(0 -1 -1 0 1077.08 558.2879)"/><path d="m400 400h600" fill="none" stroke="#e84441" stroke-linecap="round" stroke-width="9.81" transform="matrix(0 -.666667 1 0 -300 824.9549)"/><path d="m400 400h600" fill="none" stroke="#4176e8" stroke-linecap="round" stroke-width="9.81" transform="matrix(0 -.666667 -1 0 1077.08 824.9549)"/><path d="m.022 0v-.562h.104v-.003c.028-.006.049-.009.066-.009.023 0 .041.004.054.01s.026.018.038.036c.015-.018.031-.03.046-.036.014-.006.035-.01.06-.01.035 0 .061.007.08.022.02.014.033.038.041.071.009.033.013.08.013.139v.342h-.105v-.342c0-.048-.002-.082-.007-.1s-.014-.027-.027-.027c-.016 0-.027.003-.036.01-.008.007-.014.019-.018.036s-.006.041-.006.071v.352h-.104v-.336c0-.051-.003-.085-.008-.104-.005-.02-.014-.029-.027-.029-.015 0-.028.003-.036.01s-.015.019-.018.036c-.004.017-.006.041-.006.071v.352z" fill="#e84441" fill-rule="nonzero" transform="matrix(41.8814 0 0 41.8814 52.005 121.4884)"/><path d="m.249.013c-.053 0-.096-.006-.128-.018-.031-.013-.054-.032-.069-.057-.014-.026-.021-.06-.021-.103 0-.049.007-.086.021-.113.014-.026.036-.045.068-.055.031-.011.074-.016.129-.016h.115v-.02c0-.026-.004-.045-.01-.059s-.018-.024-.034-.03c-.016-.005-.04-.008-.071-.008-.025 0-.045.002-.058.007-.013.006-.024.015-.031.028s-.014.034-.021.061l-.1-.025c.011-.043.025-.077.041-.103s.038-.045.065-.058c.028-.012.062-.019.104-.019.079 0 .135.017.169.051.033.034.05.085.05.155v.213c0 .024.003.041.007.049.005.008.016.012.031.012.005 0 .016-.001.033-.002v.096c-.007.001-.017.001-.03.001-.053 0-.089-.012-.109-.036-.016.017-.037.03-.061.037-.024.008-.054.012-.09.012zm0-.097c.031 0 .055-.003.071-.011.016-.007.028-.019.034-.037.006-.017.01-.043.01-.076v-.045h-.115c-.034 0-.059.002-.074.005-.014.004-.024.011-.03.023-.007.012-.01.032-.01.06 0 .022.003.039.01.05.006.011.017.019.033.024s.04.007.071.007z" fill="#e84441" fill-rule="nonzero" transform="matrix(41.8814 0 0 41.8814 74.849 121.4884)"/><path d="m.349-.562v.466h.159v.096h-.423v-.096h.16v-.369h-.115v-.097zm-.069-.082c-.03 0-.051-.005-.062-.016-.011-.01-.017-.03-.017-.058 0-.029.006-.048.017-.059.011-.01.032-.016.062-.016s.051.006.063.016c.011.011.017.03.017.059 0 .028-.006.048-.017.058-.012.011-.033.016-.063.016z" fill="#e84441" fill-rule="nonzero" transform="matrix(41.8814 0 0 41.8814 97.694 121.4884)"/><path d="m.06 0v-.562h.105v.014c.038-.018.082-.027.133-.027.052 0 .092.008.12.022s.048.038.06.072c.012.033.018.081.018.142v.339h-.105v-.339c0-.036-.003-.064-.009-.084-.005-.02-.015-.034-.028-.042-.013-.009-.032-.013-.056-.013-.039 0-.068.003-.087.01-.018.007-.031.02-.037.037-.006.018-.009.045-.009.082v.349z" fill="#e84441" fill-rule="nonzero" transform="matrix(41.8814 0 0 41.8814 120.538 121.4884)"/><path d="m.022 0v-.562h.104v-.003c.028-.006.049-.009.066-.009.023 0 .041.004.054.01s.026.018.038.036c.015-.018.031-.03.046-.036.014-.006.035-.01.06-.01.035 0 .061.007.08.022.02.014.033.038.041.071.009.033.013.08.013.139v.342h-.105v-.342c0-.048-.002-.082-.007-.1s-.014-.027-.027-.027c-.016 0-.027.003-.036.01-.008.007-.014.019-.018.036s-.006.041-.006.071v.352h-.104v-.336c0-.051-.003-.085-.008-.104-.005-.02-.014-.029-.027-.029-.015 0-.028.003-.036.01s-.015.019-.018.036c-.004.017-.006.041-.006.071v.352z" fill="#4176e8" fill-rule="nonzero" transform="matrix(41.8814 0 0 41.8814 629.086 126.4884)"/><path d="m.249.013c-.053 0-.096-.006-.128-.018-.031-.013-.054-.032-.069-.057-.014-.026-.021-.06-.021-.103 0-.049.007-.086.021-.113.014-.026.036-.045.068-.055.031-.011.074-.016.129-.016h.115v-.02c0-.026-.004-.045-.01-.059s-.018-.024-.034-.03c-.016-.005-.04-.008-.071-.008-.025 0-.045.002-.058.007-.013.006-.024.015-.031.028s-.014.034-.021.061l-.1-.025c.011-.043.025-.077.041-.103s.038-.045.065-.058c.028-.012.062-.019.104-.019.079 0 .135.017.169.051.033.034.05.085.05.155v.213c0 .024.003.041.007.049.005.008.016.012.031.012.005 0 .016-.001.033-.002v.096c-.007.001-.017.001-.03.001-.053 0-.089-.012-.109-.036-.016.017-.037.03-.061.037-.024.008-.054.012-.09.012zm0-.097c.031 0 .055-.003.071-.011.016-.007.028-.019.034-.037.006-.017.01-.043.01-.076v-.045h-.115c-.034 0-.059.002-.074.005-.014.004-.024.011-.03.023-.007.012-.01.032-.01.06 0 .022.003.039.01.05.006.011.017.019.033.024s.04.007.071.007z" fill="#4176e8" fill-rule="nonzero" transform="matrix(41.8814 0 0 41.8814 651.93 126.4884)"/><path d="m.349-.562v.466h.159v.096h-.423v-.096h.16v-.369h-.115v-.097zm-.069-.082c-.03 0-.051-.005-.062-.016-.011-.01-.017-.03-.017-.058 0-.029.006-.048.017-.059.011-.01.032-.016.062-.016s.051.006.063.016c.011.011.017.03.017.059 0 .028-.006.048-.017.058-.012.011-.033.016-.063.016z" fill="#4176e8" fill-rule="nonzero" transform="matrix(41.8814 0 0 41.8814 674.775 126.4884)"/><path d="m.06 0v-.562h.105v.014c.038-.018.082-.027.133-.027.052 0 .092.008.12.022s.048.038.06.072c.012.033.018.081.018.142v.339h-.105v-.339c0-.036-.003-.064-.009-.084-.005-.02-.015-.034-.028-.042-.013-.009-.032-.013-.056-.013-.039 0-.068.003-.087.01-.018.007-.031.02-.037.037-.006.018-.009.045-.009.082v.349z" fill="#4176e8" fill-rule="nonzero" transform="matrix(41.8814 0 0 41.8814 697.619 126.4884)"/><path d="m.268.013c-.056 0-.101-.01-.133-.03s-.056-.051-.07-.093-.021-.099-.021-.17c0-.072.007-.128.021-.171.014-.042.038-.074.07-.094s.077-.03.133-.03c.043 0 .084.008.122.022v-.174h.105v.727h-.105v-.006c-.035.012-.076.019-.122.019zm0-.097c.042 0 .073-.004.092-.014.02-.009.03-.022.03-.038v-.215c0-.044-.01-.076-.029-.096-.019-.021-.05-.031-.093-.031-.031 0-.056.006-.073.018s-.029.032-.036.06c-.007.029-.011.068-.011.12s.004.091.011.119.019.048.036.06c.017.011.042.017.073.017z" fill="#16b338" fill-rule="nonzero" transform="matrix(41.8814 0 0 41.8814 265.296 442.7549)"/><path d="m.275-.575c.059 0 .105.011.138.033.033.021.057.055.07.102.014.046.02.108.019.187h-.361c.002.044.007.078.016.102s.022.042.041.052.045.015.077.015c.024 0 .043-.002.058-.006.015-.005.029-.013.041-.025.013-.012.027-.03.044-.053l.084.055c-.03.047-.062.08-.096.098-.033.018-.077.028-.131.028-.06 0-.107-.01-.142-.03s-.06-.051-.075-.094c-.015-.042-.023-.099-.023-.17s.008-.127.023-.17c.015-.042.04-.074.075-.094s.082-.03.142-.03zm.12.226c-.004-.033-.01-.059-.018-.077-.008-.019-.02-.032-.037-.04-.016-.008-.037-.012-.065-.012-.03 0-.054.004-.072.012s-.032.021-.042.04c-.009.018-.015.044-.018.077z" fill="#16b338" fill-rule="nonzero" transform="matrix(41.8814 0 0 41.8814 288.14 442.7549)"/><path d="m.319 0h-.094l-.203-.562h.107l.143.407.143-.407h.108z" fill="#16b338" fill-rule="nonzero" transform="matrix(41.8814 0 0 41.8814 310.985 442.7549)"/><path d="m.268.013c-.056 0-.101-.01-.133-.03s-.056-.051-.07-.093-.021-.099-.021-.17c0-.072.007-.128.021-.171.014-.042.038-.074.07-.094s.077-.03.133-.03c.043 0 .084.008.122.022v-.174h.105v.727h-.105v-.006c-.035.012-.076.019-.122.019zm0-.097c.042 0 .073-.004.092-.014.02-.009.03-.022.03-.038v-.215c0-.044-.01-.076-.029-.096-.019-.021-.05-.031-.093-.031-.031 0-.056.006-.073.018s-.029.032-.036.06c-.007.029-.011.068-.011.12s.004.091.011.119.019.048.036.06c.017.011.042.017.073.017z" fill="#c7b218" fill-rule="nonzero" transform="matrix(41.8814 0 0 41.8814 442.376 443.7469)"/><path d="m.275-.575c.059 0 .105.011.138.033.033.021.057.055.07.102.014.046.02.108.019.187h-.361c.002.044.007.078.016.102s.022.042.041.052.045.015.077.015c.024 0 .043-.002.058-.006.015-.005.029-.013.041-.025.013-.012.027-.03.044-.053l.084.055c-.03.047-.062.08-.096.098-.033.018-.077.028-.131.028-.06 0-.107-.01-.142-.03s-.06-.051-.075-.094c-.015-.042-.023-.099-.023-.17s.008-.127.023-.17c.015-.042.04-.074.075-.094s.082-.03.142-.03zm.12.226c-.004-.033-.01-.059-.018-.077-.008-.019-.02-.032-.037-.04-.016-.008-.037-.012-.065-.012-.03 0-.054.004-.072.012s-.032.021-.042.04c-.009.018-.015.044-.018.077z" fill="#c7b218" fill-rule="nonzero" transform="matrix(41.8814 0 0 41.8814 465.22 443.7469)"/><path d="m.319 0h-.094l-.203-.562h.107l.143.407.143-.407h.108z" fill="#c7b218" fill-rule="nonzero" transform="matrix(41.8814 0 0 41.8814 488.065 443.7469)"/><g transform="matrix(1.0000004652 0 0 1 -.000228864 0)"><path d="m432.081 345.788 25 12.5-25 12.5z" fill="#808080"/><path d="m320 358.288h117.081" fill="none" stroke="#808080" stroke-width="8.33"/></g><g fill-rule="nonzero"><path d="m.49 0h-.409v-.727h.104v.631h.305z" fill="#e84441" transform="matrix(41.8814 0 0 41.8814 131.6262 30.9923)"/><path d="m.273.013c-.061 0-.109-.012-.143-.034-.035-.023-.06-.059-.075-.108-.016-.049-.023-.115-.023-.198v-.073c0-.083.007-.149.023-.198.015-.049.04-.085.075-.108.034-.023.082-.034.143-.034.06 0 .108.011.143.034s.06.059.075.108c.016.049.024.115.024.198v.073c0 .083-.008.149-.024.198-.015.049-.04.085-.075.108-.035.022-.083.034-.143.034zm0-.097c.035 0 .063-.007.082-.022.02-.015.034-.039.042-.074s.012-.084.012-.147v-.073c0-.064-.004-.113-.012-.147-.008-.035-.022-.06-.042-.074-.019-.015-.047-.023-.082-.023-.036 0-.064.008-.083.023-.019.014-.033.039-.041.074-.009.034-.013.083-.013.147v.073c0 .063.004.112.012.147.009.034.023.059.042.074s.047.022.083.022z" fill="#e84441" transform="matrix(41.8814 0 0 41.8814 154.4662 30.9923)"/><path d="m.286.013c-.062 0-.111-.013-.147-.038s-.061-.065-.077-.119-.024-.128-.024-.221c0-.092.008-.165.024-.219s.041-.094.077-.119.085-.037.147-.037c.044 0 .08.006.109.018.028.012.052.032.07.06.018.027.034.065.048.113l-.099.034c-.011-.036-.021-.063-.03-.081-.01-.018-.022-.03-.037-.037-.014-.007-.035-.011-.061-.011-.037 0-.065.009-.086.026s-.035.045-.044.085-.013.096-.013.168c0 .073.004.13.013.17s.023.068.044.085c.021.018.049.026.086.026.026 0 .047-.003.061-.01.015-.007.027-.019.037-.036.009-.018.019-.044.03-.08l.099.034c-.014.047-.03.084-.048.111-.018.028-.042.047-.07.06-.028.012-.064.018-.109.018z" fill="#e84441" transform="matrix(41.8814 0 0 41.8814 177.3162 30.9923)"/><path d="m.531 0h-.108l-.047-.169h-.207l-.046.169h-.108l.203-.727h.11zm-.258-.548-.078.283h.155z" fill="#e84441" transform="matrix(41.8814 0 0 41.8814 200.1562 30.9923)"/><path d="m.49 0h-.409v-.727h.104v.631h.305z" fill="#e84441" transform="matrix(41.8814 0 0 41.8814 223.0062 30.9923)"/><path d="m.427 0-.204-.291h-.058v.291h-.105v-.727h.224c.055 0 .099.007.131.022.033.014.057.037.072.069.015.031.022.074.022.127 0 .05-.005.089-.016.119s-.029.052-.053.067-.057.025-.097.029l.205.294zm-.262-.631v.244h.119c.034 0 .06-.003.076-.009s.028-.017.035-.034c.006-.016.01-.043.01-.079 0-.033-.004-.058-.011-.075s-.019-.029-.036-.036-.042-.011-.074-.011z" fill="#4176e8" transform="matrix(41.8814 0 0 41.8814 507.938 30.9923)"/><path d="m.508-.727v.096h-.34v.198h.218v.097h-.218v.24h.34v.096h-.444v-.727z" fill="#4176e8" transform="matrix(41.8814 0 0 41.8814 530.778 30.9923)"/><path d="m.13 0h-.105l.013-.727h.097l.138.341.138-.341h.097l.013.727h-.105l-.009-.456-.091.245h-.087l-.091-.245z" fill="#4176e8" transform="matrix(41.8814 0 0 41.8814 553.628 30.9923)"/><path d="m.273.013c-.061 0-.109-.012-.143-.034-.035-.023-.06-.059-.075-.108-.016-.049-.023-.115-.023-.198v-.073c0-.083.007-.149.023-.198.015-.049.04-.085.075-.108.034-.023.082-.034.143-.034.06 0 .108.011.143.034s.06.059.075.108c.016.049.024.115.024.198v.073c0 .083-.008.149-.024.198-.015.049-.04.085-.075.108-.035.022-.083.034-.143.034zm0-.097c.035 0 .063-.007.082-.022.02-.015.034-.039.042-.074s.012-.084.012-.147v-.073c0-.064-.004-.113-.012-.147-.008-.035-.022-.06-.042-.074-.019-.015-.047-.023-.082-.023-.036 0-.064.008-.083.023-.019.014-.033.039-.041.074-.009.034-.013.083-.013.147v.073c0 .063.004.112.012.147.009.034.023.059.042.074s.047.022.083.022z" fill="#4176e8" transform="matrix(41.8814 0 0 41.8814 576.468 30.9923)"/><path d="m.546-.727v.096h-.221v.631h-.104v-.631h-.222v-.096z" fill="#4176e8" transform="matrix(41.8814 0 0 41.8814 599.318 30.9923)"/><path d="m.508-.727v.096h-.34v.198h.218v.097h-.218v.24h.34v.096h-.444v-.727z" fill="#4176e8" transform="matrix(41.8814 0 0 41.8814 622.158 30.9923)"/><path d="m.291-.727c.055 0 .099.007.132.022.032.014.056.037.071.069.015.031.022.074.022.127 0 .056-.007.1-.021.132-.015.031-.038.054-.071.067-.032.013-.077.019-.133.019h-.119v.291h-.105v-.727h.099l.006-.006v.006zm0 .34c.034 0 .06-.003.076-.009.017-.006.028-.017.035-.034.006-.016.01-.043.01-.079 0-.033-.004-.058-.011-.075s-.019-.029-.036-.036-.041-.011-.074-.011h-.119v.244z" fill="#808080" transform="matrix(29.417076546 29.8108454688 -29.8108454688 29.417076546 537.901438072 396.79101869)"/><path d="m.427 0-.204-.291h-.058v.291h-.105v-.727h.224c.055 0 .099.007.131.022.033.014.057.037.072.069.015.031.022.074.022.127 0 .05-.005.089-.016.119s-.029.052-.053.067-.057.025-.097.029l.205.294zm-.262-.631v.244h.119c.034 0 .06-.003.076-.009s.028-.017.035-.034c.006-.016.01-.043.01-.079 0-.033-.004-.058-.011-.075s-.019-.029-.036-.036-.042-.011-.074-.011z" fill="#808080" transform="matrix(29.417076546 29.8108454688 -29.8108454688 29.417076546 553.944025672 413.04834797)"/><path d="m.13.165h-.109l.394-1.027h.11z" fill="#808080" transform="matrix(29.417076546 29.8108454688 -29.8108454688 29.417076546 569.993637172 429.31279517)"/><path d="m.13 0h-.105l.013-.727h.097l.138.341.138-.341h.097l.013.727h-.105l-.009-.456-.091.245h-.087l-.091-.245z" fill="#808080" transform="matrix(29.417076546 29.8108454688 -29.8108454688 29.417076546 586.036224772 445.57012445)"/><path d="m.427 0-.204-.291h-.058v.291h-.105v-.727h.224c.055 0 .099.007.131.022.033.014.057.037.072.069.015.031.022.074.022.127 0 .05-.005.089-.016.119s-.029.052-.053.067-.057.025-.097.029l.205.294zm-.262-.631v.244h.119c.034 0 .06-.003.076-.009s.028-.017.035-.034c.006-.016.01-.043.01-.079 0-.033-.004-.058-.011-.075s-.019-.029-.036-.036-.042-.011-.074-.011z" fill="#808080" transform="matrix(29.417076546 29.8108454688 -29.8108454688 29.417076546 602.085836272 461.83457165)"/><path d="m.271.178c-.043 0-.076-.006-.101-.017-.026-.012-.051-.032-.075-.062l.076-.065c.017.02.031.033.043.039s.031.009.057.009c.031 0 .054-.004.071-.012.016-.007.028-.02.034-.039.007-.018.01-.045.01-.081v-.002c-.038.015-.078.022-.121.022-.057 0-.101-.01-.134-.03-.033-.021-.056-.053-.071-.097-.014-.045-.021-.104-.021-.179 0-.057.008-.103.022-.138.015-.034.039-.06.072-.076.032-.016.076-.025.132-.025.044 0 .085.007.121.019v-.006h.105v.504c0 .058-.007.104-.021.138-.015.034-.038.059-.07.075-.031.015-.075.023-.129.023zm-.006-.304c.043 0 .074-.011.093-.031.019-.021.028-.053.028-.097v-.171c0-.017-.009-.03-.029-.039s-.051-.014-.092-.014c-.033 0-.057.004-.074.013-.017.008-.029.022-.036.043-.007.02-.01.049-.01.086 0 .055.003.098.01.128.008.03.02.051.037.063s.041.019.073.019z" fill="#808080" transform="matrix(41.8814 0 0 41.8814 308.2289 610.8249)"/><path d="m.349-.562v.466h.159v.096h-.423v-.096h.16v-.369h-.115v-.097zm-.069-.082c-.03 0-.051-.005-.062-.016-.011-.01-.017-.03-.017-.058 0-.029.006-.048.017-.059.011-.01.032-.016.062-.016s.051.006.063.016c.011.011.017.03.017.059 0 .028-.006.048-.017.058-.012.011-.033.016-.063.016z" fill="#808080" transform="matrix(41.8814 0 0 41.8814 331.0689 610.8249)"/><path d="m.332.013c-.044 0-.08-.008-.107-.023-.026-.015-.046-.039-.058-.072-.013-.033-.019-.077-.019-.131v-.263h-.113v-.097h.113v-.154h.105v.154h.188v.097h-.188v.263c0 .034.002.06.007.079.005.018.013.031.024.039s.027.011.048.011c.022 0 .038-.001.048-.004s.018-.009.022-.017c.005-.007.01-.021.016-.04l.098.033c-.009.032-.021.056-.035.074-.015.018-.034.031-.057.039s-.054.012-.092.012z" fill="#808080" transform="matrix(41.8814 0 0 41.8814 353.9189 610.8249)"/><path d="m.053.165v-.727h.105v.006c.035-.012.076-.019.121-.019.056 0 .101.01.134.03.032.02.056.051.07.093.014.043.022.099.022.17s-.008.128-.022.171c-.014.042-.038.074-.07.094-.033.02-.078.03-.134.03-.043 0-.083-.008-.121-.022v.174zm.226-.249c.032 0 .056-.006.073-.018.018-.012.03-.032.037-.06s.011-.068.011-.12c0-.051-.004-.091-.011-.119s-.019-.048-.037-.059c-.017-.012-.041-.018-.073-.018-.081 0-.121.017-.121.053v.214c0 .044.01.076.028.096.019.021.05.031.093.031z" fill="#808080" transform="matrix(41.8814 0 0 41.8814 399.6089 610.8249)"/><path d="m.257.013c-.049 0-.088-.008-.116-.023-.029-.014-.049-.038-.062-.072-.013-.033-.019-.079-.019-.136v-.344h.105v.344c0 .037.002.066.007.084.005.019.015.032.028.039.013.008.032.011.057.011.038 0 .066-.003.084-.009.019-.006.032-.017.039-.032s.011-.038.011-.069v-.368h.105v.562h-.105v-.009c-.032.014-.076.022-.134.022z" fill="#808080" transform="matrix(41.8814 0 0 41.8814 422.4489 610.8249)"/><path d="m.366.013c-.042 0-.075-.007-.098-.019-.024-.013-.04-.034-.05-.064s-.015-.072-.015-.125v-.436h-.115v-.096h.219v.532c0 .042.005.071.013.087s.024.024.046.024c.011 0 .023-.003.035-.011.013-.007.03-.02.053-.039l.058.089c-.027.022-.051.037-.072.045-.02.009-.045.013-.074.013z" fill="#808080" transform="matrix(41.8814 0 0 41.8814 445.2989 610.8249)"/><path d="m.366.013c-.042 0-.075-.007-.098-.019-.024-.013-.04-.034-.05-.064s-.015-.072-.015-.125v-.436h-.115v-.096h.219v.532c0 .042.005.071.013.087s.024.024.046.024c.011 0 .023-.003.035-.011.013-.007.03-.02.053-.039l.058.089c-.027.022-.051.037-.072.045-.02.009-.045.013-.074.013z" fill="#808080" transform="matrix(41.8814 0 0 41.8814 468.1389 610.8249)"/><path d="m.271.178c-.043 0-.076-.006-.101-.017-.026-.012-.051-.032-.075-.062l.076-.065c.017.02.031.033.043.039s.031.009.057.009c.031 0 .054-.004.071-.012.016-.007.028-.02.034-.039.007-.018.01-.045.01-.081v-.002c-.038.015-.078.022-.121.022-.057 0-.101-.01-.134-.03-.033-.021-.056-.053-.071-.097-.014-.045-.021-.104-.021-.179 0-.057.008-.103.022-.138.015-.034.039-.06.072-.076.032-.016.076-.025.132-.025.044 0 .085.007.121.019v-.006h.105v.504c0 .058-.007.104-.021.138-.015.034-.038.059-.07.075-.031.015-.075.023-.129.023zm-.006-.304c.043 0 .074-.011.093-.031.019-.021.028-.053.028-.097v-.171c0-.017-.009-.03-.029-.039s-.051-.014-.092-.014c-.033 0-.057.004-.074.013-.017.008-.029.022-.036.043-.007.02-.01.049-.01.086 0 .055.003.098.01.128.008.03.02.051.037.063s.041.019.073.019z" fill="#808080" transform="matrix(41.8814 0 0 41.8814 308.2289 319.2249)"/><path d="m.349-.562v.466h.159v.096h-.423v-.096h.16v-.369h-.115v-.097zm-.069-.082c-.03 0-.051-.005-.062-.016-.011-.01-.017-.03-.017-.058 0-.029.006-.048.017-.059.011-.01.032-.016.062-.016s.051.006.063.016c.011.011.017.03.017.059 0 .028-.006.048-.017.058-.012.011-.033.016-.063.016z" fill="#808080" transform="matrix(41.8814 0 0 41.8814 331.0689 319.2249)"/><path d="m.332.013c-.044 0-.08-.008-.107-.023-.026-.015-.046-.039-.058-.072-.013-.033-.019-.077-.019-.131v-.263h-.113v-.097h.113v-.154h.105v.154h.188v.097h-.188v.263c0 .034.002.06.007.079.005.018.013.031.024.039s.027.011.048.011c.022 0 .038-.001.048-.004s.018-.009.022-.017c.005-.007.01-.021.016-.04l.098.033c-.009.032-.021.056-.035.074-.015.018-.034.031-.057.039s-.054.012-.092.012z" fill="#808080" transform="matrix(41.8814 0 0 41.8814 353.9189 319.2249)"/><path d="m.053.165v-.727h.105v.006c.035-.012.076-.019.121-.019.056 0 .101.01.134.03.032.02.056.051.07.093.014.043.022.099.022.17s-.008.128-.022.171c-.014.042-.038.074-.07.094-.033.02-.078.03-.134.03-.043 0-.083-.008-.121-.022v.174zm.226-.249c.032 0 .056-.006.073-.018.018-.012.03-.032.037-.06s.011-.068.011-.12c0-.051-.004-.091-.011-.119s-.019-.048-.037-.059c-.017-.012-.041-.018-.073-.018-.081 0-.121.017-.121.053v.214c0 .044.01.076.028.096.019.021.05.031.093.031z" fill="#808080" transform="matrix(41.8814 0 0 41.8814 399.6089 319.2249)"/><path d="m.257.013c-.049 0-.088-.008-.116-.023-.029-.014-.049-.038-.062-.072-.013-.033-.019-.079-.019-.136v-.344h.105v.344c0 .037.002.066.007.084.005.019.015.032.028.039.013.008.032.011.057.011.038 0 .066-.003.084-.009.019-.006.032-.017.039-.032s.011-.038.011-.069v-.368h.105v.562h-.105v-.009c-.032.014-.076.022-.134.022z" fill="#808080" transform="matrix(41.8814 0 0 41.8814 422.4489 319.2249)"/><path d="m.25.013c-.05 0-.09-.009-.12-.028-.029-.018-.055-.05-.079-.096l.083-.068c.012.028.022.048.031.061s.02.021.032.027c.013.005.031.007.053.007.042 0 .073-.002.095-.007.021-.005.035-.013.043-.024s.012-.027.012-.049c0-.021-.003-.036-.01-.046-.006-.01-.017-.017-.034-.022-.016-.005-.044-.01-.082-.014-.074-.009-.127-.026-.159-.049-.033-.023-.05-.06-.05-.11 0-.041.008-.074.023-.098.015-.025.04-.043.073-.054.033-.012.078-.018.134-.018.054 0 .095.008.125.024s.057.044.081.084l-.076.074c-.014-.025-.025-.043-.035-.054-.01-.012-.022-.02-.035-.024-.014-.005-.034-.007-.06-.007-.034 0-.06.002-.078.006s-.03.012-.037.022-.01.025-.01.045c0 .014.004.025.011.032.007.008.018.013.033.017.014.003.037.007.067.011.057.009.102.019.134.032.032.012.055.03.069.053.014.024.021.056.021.096 0 .043-.008.077-.025.103-.016.025-.043.044-.08.056-.038.012-.088.018-.15.018z" fill="#808080" transform="matrix(41.8814 0 0 41.8814 445.2989 319.2249)"/><path d="m.065 0v-.727h.105v.169c.033-.011.07-.017.112-.017.054 0 .097.01.129.03.031.02.054.053.068.097s.021.104.021.181v.267h-.105v-.267c0-.057-.003-.101-.01-.131s-.018-.051-.034-.062c-.016-.012-.039-.018-.069-.018-.032 0-.056.003-.072.01-.015.006-.026.019-.031.036-.006.018-.009.045-.009.083v.349z" fill="#808080" transform="matrix(41.8814 0 0 41.8814 468.1389 319.2249)"/></g></svg>