<svg clip-rule="evenodd" fill-rule="evenodd" stroke-linecap="round" stroke-linejoin="round" stroke-miterlimit="1.5" viewBox="0 0 577 646" xmlns="http://www.w3.org/2000/svg"><g transform="translate(-244.583 -180)"><circle cx="599.99835" cy="199.99935" fill="#a6e22e" r="19.99995" stroke-width="1.33333"/><circle cx="599.99835" cy="399.99902" fill="#a6e22e" r="19.99995" stroke-width="1.33333"/><circle cx="599.99835" cy="599.99935" fill="#a6e22e" r="19.99995" stroke-width="1.33333"/><circle cx="599.99835" cy="799.99935" fill="#a6e22e" r="19.99995" stroke-width="1.33333"/><path d="m600 200v600" fill="none" stroke="#a6e22e" stroke-width="8.33"/><g fill-rule="nonzero"><path d="m.25.013c-.05 0-.09-.009-.12-.028-.029-.018-.055-.05-.079-.096l.083-.068c.012.028.022.048.031.061s.02.021.032.027c.013.005.031.007.053.007.042 0 .073-.002.095-.007.021-.005.035-.013.043-.024s.012-.027.012-.049c0-.021-.003-.036-.01-.046-.006-.01-.017-.017-.034-.022-.016-.005-.044-.01-.082-.014-.074-.009-.127-.026-.159-.049-.033-.023-.05-.06-.05-.11 0-.041.008-.074.023-.098.015-.025.04-.043.073-.054.033-.012.078-.018.134-.018.054 0 .095.008.125.024s.057.044.081.084l-.076.074c-.014-.025-.025-.043-.035-.054-.01-.012-.022-.02-.035-.024-.014-.005-.034-.007-.06-.007-.034 0-.06.002-.078.006s-.03.012-.037.022-.01.025-.01.045c0 .014.004.025.011.032.007.008.018.013.033.017.014.003.037.007.067.011.057.009.102.019.134.032.032.012.055.03.069.053.014.024.021.056.021.096 0 .043-.008.077-.025.103-.016.025-.043.044-.08.056-.038.012-.088.018-.15.018z" fill="#a6e22e" transform="matrix(53.14 0 0 53.14 387.192 210.530182)"/><path d="m.257.013c-.049 0-.088-.008-.116-.023-.029-.014-.049-.038-.062-.072-.013-.033-.019-.079-.019-.136v-.344h.105v.344c0 .037.002.066.007.084.005.019.015.032.028.039.013.008.032.011.057.011.038 0 .066-.003.084-.009.019-.006.032-.017.039-.032s.011-.038.011-.069v-.368h.105v.562h-.105v-.009c-.032.014-.076.022-.134.022z" fill="#a6e22e" transform="matrix(53.14 0 0 53.14 416.1777444 210.530182)"/><path d="m.022 0v-.562h.104v-.003c.028-.006.049-.009.066-.009.023 0 .041.004.054.01s.026.018.038.036c.015-.018.031-.03.046-.036.014-.006.035-.01.06-.01.035 0 .061.007.08.022.02.014.033.038.041.071.009.033.013.08.013.139v.342h-.105v-.342c0-.048-.002-.082-.007-.1s-.014-.027-.027-.027c-.016 0-.027.003-.036.01-.008.007-.014.019-.018.036s-.006.041-.006.071v.352h-.104v-.336c0-.051-.003-.085-.008-.104-.005-.02-.014-.029-.027-.029-.015 0-.028.003-.036.01s-.015.019-.018.036c-.004.017-.006.041-.006.071v.352z" fill="#a6e22e" transform="matrix(53.14 0 0 53.14 445.162426 210.530182)"/><path d="m.273.013c-.032 0-.053-.006-.065-.017s-.018-.031-.018-.06.006-.049.018-.06.033-.017.065-.017c.031 0 .053.006.065.017s.017.031.017.06-.005.049-.017.06-.034.017-.065.017z" fill="#a6e22e" transform="matrix(53.14 0 0 53.14 474.1481704 210.530182)"/><path d="m.053.165v-.727h.105v.006c.035-.012.076-.019.121-.019.056 0 .101.01.134.03.032.02.056.051.07.093.014.043.022.099.022.17s-.008.128-.022.171c-.014.042-.038.074-.07.094-.033.02-.078.03-.134.03-.043 0-.083-.008-.121-.022v.174zm.226-.249c.032 0 .056-.006.073-.018.018-.012.03-.032.037-.06s.011-.068.011-.12c0-.051-.004-.091-.011-.119s-.019-.048-.037-.059c-.017-.012-.041-.018-.073-.018-.081 0-.121.017-.121.053v.214c0 .044.01.076.028.096.019.021.05.031.093.031z" fill="#a6e22e" transform="matrix(53.14 0 0 53.14 503.1339148 210.530182)"/><path d="m.122.178c-.024 0-.045-.003-.062-.009s-.036-.016-.056-.031l.041-.088c.023.014.039.023.048.026.008.004.018.006.029.006.022 0 .039-.003.053-.009.013-.006.025-.017.035-.032.01-.014.019-.036.029-.066l-.188-.537h.109l.135.4.136-.4h.11l-.196.545c-.017.049-.036.088-.055.116s-.042.048-.069.061c-.026.012-.059.018-.099.018z" fill="#a6e22e" transform="matrix(53.14 0 0 53.14 532.1196592 210.530182)"/><path d="m.325-.096h.13v.096h-.363v-.096h.129v-.429c-.041.024-.09.036-.147.036v-.097c.049 0 .085-.012.109-.034.024-.023.036-.059.036-.107h.106z" fill="#42affa" transform="matrix(53.14 0 0 53.14 676.715 219.322682)"/><path d="m.273.013c-.032 0-.053-.006-.065-.017s-.018-.031-.018-.06.006-.049.018-.06.033-.017.065-.017c.031 0 .053.006.065.017s.017.031.017.06-.005.049-.017.06-.034.017-.065.017z" fill="#42affa" transform="matrix(53.14 0 0 53.14 705.7007444 219.322682)"/><path d="m.273.013c-.045 0-.086-.017-.123-.049-.037-.033-.066-.078-.087-.136-.021-.057-.031-.121-.031-.192 0-.07.01-.134.031-.191.021-.058.05-.103.087-.136s.078-.049.123-.049.085.016.122.049.067.078.088.136c.021.057.032.121.032.191 0 .071-.011.135-.032.192-.021.058-.051.103-.088.136-.037.032-.077.049-.122.049zm0-.097c.023 0 .045-.012.066-.037s.038-.059.051-.102.019-.09.019-.141-.006-.098-.019-.141-.03-.077-.051-.101c-.021-.025-.043-.038-.066-.038s-.045.013-.067.038c-.021.024-.038.058-.051.101-.012.043-.019.09-.019.141s.007.098.019.141c.013.043.03.077.051.102.022.025.044.037.067.037zm0-.21c-.022 0-.04-.006-.054-.019s-.021-.03-.021-.051c0-.02.007-.036.021-.049.014-.012.032-.019.054-.019s.04.007.054.019c.014.013.021.029.021.049 0 .021-.007.038-.021.051s-.032.019-.054.019z" fill="#42affa" transform="matrix(53.14 0 0 53.14 734.685426 219.322682)"/><path d="m.273.013c-.032 0-.053-.006-.065-.017s-.018-.031-.018-.06.006-.049.018-.06.033-.017.065-.017c.031 0 .053.006.065.017s.017.031.017.06-.005.049-.017.06-.034.017-.065.017z" fill="#42affa" transform="matrix(53.14 0 0 53.14 763.6711704 219.322682)"/><path d="m.273.013c-.045 0-.086-.017-.123-.049-.037-.033-.066-.078-.087-.136-.021-.057-.031-.121-.031-.192 0-.07.01-.134.031-.191.021-.058.05-.103.087-.136s.078-.049.123-.049.085.016.122.049.067.078.088.136c.021.057.032.121.032.191 0 .071-.011.135-.032.192-.021.058-.051.103-.088.136-.037.032-.077.049-.122.049zm0-.097c.023 0 .045-.012.066-.037s.038-.059.051-.102.019-.09.019-.141-.006-.098-.019-.141-.03-.077-.051-.101c-.021-.025-.043-.038-.066-.038s-.045.013-.067.038c-.021.024-.038.058-.051.101-.012.043-.019.09-.019.141s.007.098.019.141c.013.043.03.077.051.102.022.025.044.037.067.037zm0-.21c-.022 0-.04-.006-.054-.019s-.021-.03-.021-.051c0-.02.007-.036.021-.049.014-.012.032-.019.054-.019s.04.007.054.019c.014.013.021.029.021.049 0 .021-.007.038-.021.051s-.032.019-.054.019z" fill="#42affa" transform="matrix(53.14 0 0 53.14 792.6569148 219.322682)"/><path d="m.325-.096h.13v.096h-.363v-.096h.129v-.429c-.041.024-.09.036-.147.036v-.097c.049 0 .085-.012.109-.034.024-.023.036-.059.036-.107h.106z" fill="#42affa" transform="matrix(53.14 0 0 53.14 676.086 425.120182)"/><path d="m.273.013c-.032 0-.053-.006-.065-.017s-.018-.031-.018-.06.006-.049.018-.06.033-.017.065-.017c.031 0 .053.006.065.017s.017.031.017.06-.005.049-.017.06-.034.017-.065.017z" fill="#42affa" transform="matrix(53.14 0 0 53.14 705.0717444 425.120182)"/><path d="m.325-.096h.13v.096h-.363v-.096h.129v-.429c-.041.024-.09.036-.147.036v-.097c.049 0 .085-.012.109-.034.024-.023.036-.059.036-.107h.106z" fill="#42affa" transform="matrix(53.14 0 0 53.14 734.056426 425.120182)"/><path d="m.273.013c-.032 0-.053-.006-.065-.017s-.018-.031-.018-.06.006-.049.018-.06.033-.017.065-.017c.031 0 .053.006.065.017s.017.031.017.06-.005.049-.017.06-.034.017-.065.017z" fill="#42affa" transform="matrix(53.14 0 0 53.14 763.0421704 425.120182)"/><path d="m.273.013c-.045 0-.086-.017-.123-.049-.037-.033-.066-.078-.087-.136-.021-.057-.031-.121-.031-.192 0-.07.01-.134.031-.191.021-.058.05-.103.087-.136s.078-.049.123-.049.085.016.122.049.067.078.088.136c.021.057.032.121.032.191 0 .071-.011.135-.032.192-.021.058-.051.103-.088.136-.037.032-.077.049-.122.049zm0-.097c.023 0 .045-.012.066-.037s.038-.059.051-.102.019-.09.019-.141-.006-.098-.019-.141-.03-.077-.051-.101c-.021-.025-.043-.038-.066-.038s-.045.013-.067.038c-.021.024-.038.058-.051.101-.012.043-.019.09-.019.141s.007.098.019.141c.013.043.03.077.051.102.022.025.044.037.067.037zm0-.21c-.022 0-.04-.006-.054-.019s-.021-.03-.021-.051c0-.02.007-.036.021-.049.014-.012.032-.019.054-.019s.04.007.054.019c.014.013.021.029.021.049 0 .021-.007.038-.021.051s-.032.019-.054.019z" fill="#42affa" transform="matrix(53.14 0 0 53.14 792.0279148 425.120182)"/><path d="m.325-.096h.13v.096h-.363v-.096h.129v-.429c-.041.024-.09.036-.147.036v-.097c.049 0 .085-.012.109-.034.024-.023.036-.059.036-.107h.106z" fill="#42affa" transform="matrix(53.14 0 0 53.14 676.715 619.999182)"/><path d="m.273.013c-.032 0-.053-.006-.065-.017s-.018-.031-.018-.06.006-.049.018-.06.033-.017.065-.017c.031 0 .053.006.065.017s.017.031.017.06-.005.049-.017.06-.034.017-.065.017z" fill="#42affa" transform="matrix(53.14 0 0 53.14 705.7007444 619.999182)"/><path d="m.035-.069c0-.033.008-.063.026-.091.018-.029.04-.054.066-.076.026-.023.06-.049.102-.079.041-.031.073-.056.096-.075.023-.02.042-.042.058-.066.016-.025.024-.051.024-.079 0-.03-.004-.053-.011-.068-.008-.015-.021-.025-.04-.032-.018-.006-.047-.009-.084-.009s-.064.003-.083.009c-.019.007-.032.017-.039.032-.008.015-.012.038-.012.068 0 .012 0 .021.001.028h-.104c-.003-.059.003-.105.017-.138.015-.034.039-.058.074-.073s.083-.022.146-.022c.059 0 .106.007.141.02s.06.035.076.065c.015.029.023.07.023.12 0 .044-.011.084-.033.12-.022.037-.049.068-.079.095-.031.027-.071.058-.119.093-.041.028-.072.052-.094.072s-.037.039-.045.059h.368v.096h-.475z" fill="#42affa" transform="matrix(53.14 0 0 53.14 734.685426 619.999182)"/><path d="m.273.013c-.032 0-.053-.006-.065-.017s-.018-.031-.018-.06.006-.049.018-.06.033-.017.065-.017c.031 0 .053.006.065.017s.017.031.017.06-.005.049-.017.06-.034.017-.065.017z" fill="#42affa" transform="matrix(53.14 0 0 53.14 763.6711704 619.999182)"/><path d="m.273.013c-.045 0-.086-.017-.123-.049-.037-.033-.066-.078-.087-.136-.021-.057-.031-.121-.031-.192 0-.07.01-.134.031-.191.021-.058.05-.103.087-.136s.078-.049.123-.049.085.016.122.049.067.078.088.136c.021.057.032.121.032.191 0 .071-.011.135-.032.192-.021.058-.051.103-.088.136-.037.032-.077.049-.122.049zm0-.097c.023 0 .045-.012.066-.037s.038-.059.051-.102.019-.09.019-.141-.006-.098-.019-.141-.03-.077-.051-.101c-.021-.025-.043-.038-.066-.038s-.045.013-.067.038c-.021.024-.038.058-.051.101-.012.043-.019.09-.019.141s.007.098.019.141c.013.043.03.077.051.102.022.025.044.037.067.037zm0-.21c-.022 0-.04-.006-.054-.019s-.021-.03-.021-.051c0-.02.007-.036.021-.049.014-.012.032-.019.054-.019s.04.007.054.019c.014.013.021.029.021.049 0 .021-.007.038-.021.051s-.032.019-.054.019z" fill="#42affa" transform="matrix(53.14 0 0 53.14 792.6569148 619.999182)"/><path d="m.325-.096h.13v.096h-.363v-.096h.129v-.429c-.041.024-.09.036-.147.036v-.097c.049 0 .085-.012.109-.034.024-.023.036-.059.036-.107h.106z" fill="#42affa" transform="matrix(53.14 0 0 53.14 677.343 814.878182)"/><path d="m.273.013c-.032 0-.053-.006-.065-.017s-.018-.031-.018-.06.006-.049.018-.06.033-.017.065-.017c.031 0 .053.006.065.017s.017.031.017.06-.005.049-.017.06-.034.017-.065.017z" fill="#42affa" transform="matrix(53.14 0 0 53.14 706.3287444 814.878182)"/><path d="m.273.013c-.06 0-.106-.008-.139-.022-.033-.015-.056-.038-.07-.069-.014-.032-.02-.075-.02-.129h.105c0 .035.003.061.008.077.006.017.017.029.034.036.018.007.045.01.082.01.034 0 .059-.003.077-.01s.03-.019.037-.036.01-.042.01-.074c0-.037-.003-.065-.009-.082-.006-.018-.016-.03-.031-.037-.014-.006-.037-.011-.067-.013h-.092v-.097h.092c.032-.002.055-.006.069-.01.014-.005.024-.014.03-.027.005-.014.008-.036.008-.066 0-.029-.003-.051-.01-.066s-.019-.026-.037-.032-.043-.01-.077-.01c-.038 0-.066.004-.083.01-.016.007-.027.018-.032.034-.005.017-.008.043-.008.079h-.106c0-.056.006-.099.02-.13.014-.032.037-.054.07-.068.032-.014.079-.021.139-.021.056 0 .101.007.134.02.033.014.057.036.072.065s.023.069.023.119c0 .04-.005.071-.014.092-.01.022-.026.041-.05.059.024.02.04.043.05.069.009.026.014.063.014.112 0 .053-.008.095-.022.126-.015.031-.039.054-.072.069-.033.014-.078.022-.135.022z" fill="#42affa" transform="matrix(53.14 0 0 53.14 735.313426 814.878182)"/><path d="m.273.013c-.032 0-.053-.006-.065-.017s-.018-.031-.018-.06.006-.049.018-.06.033-.017.065-.017c.031 0 .053.006.065.017s.017.031.017.06-.005.049-.017.06-.034.017-.065.017z" fill="#42affa" transform="matrix(53.14 0 0 53.14 764.2991704 814.878182)"/><path d="m.273.013c-.045 0-.086-.017-.123-.049-.037-.033-.066-.078-.087-.136-.021-.057-.031-.121-.031-.192 0-.07.01-.134.031-.191.021-.058.05-.103.087-.136s.078-.049.123-.049.085.016.122.049.067.078.088.136c.021.057.032.121.032.191 0 .071-.011.135-.032.192-.021.058-.051.103-.088.136-.037.032-.077.049-.122.049zm0-.097c.023 0 .045-.012.066-.037s.038-.059.051-.102.019-.09.019-.141-.006-.098-.019-.141-.03-.077-.051-.101c-.021-.025-.043-.038-.066-.038s-.045.013-.067.038c-.021.024-.038.058-.051.101-.012.043-.019.09-.019.141s.007.098.019.141c.013.043.03.077.051.102.022.025.044.037.067.037zm0-.21c-.022 0-.04-.006-.054-.019s-.021-.03-.021-.051c0-.02.007-.036.021-.049.014-.012.032-.019.054-.019s.04.007.054.019c.014.013.021.029.021.049 0 .021-.007.038-.021.051s-.032.019-.054.019z" fill="#42affa" transform="matrix(53.14 0 0 53.14 793.2849148 814.878182)"/><path d="m.25.013c-.05 0-.09-.009-.12-.028-.029-.018-.055-.05-.079-.096l.083-.068c.012.028.022.048.031.061s.02.021.032.027c.013.005.031.007.053.007.042 0 .073-.002.095-.007.021-.005.035-.013.043-.024s.012-.027.012-.049c0-.021-.003-.036-.01-.046-.006-.01-.017-.017-.034-.022-.016-.005-.044-.01-.082-.014-.074-.009-.127-.026-.159-.049-.033-.023-.05-.06-.05-.11 0-.041.008-.074.023-.098.015-.025.04-.043.073-.054.033-.012.078-.018.134-.018.054 0 .095.008.125.024s.057.044.081.084l-.076.074c-.014-.025-.025-.043-.035-.054-.01-.012-.022-.02-.035-.024-.014-.005-.034-.007-.06-.007-.034 0-.06.002-.078.006s-.03.012-.037.022-.01.025-.01.045c0 .014.004.025.011.032.007.008.018.013.033.017.014.003.037.007.067.011.057.009.102.019.134.032.032.012.055.03.069.053.014.024.021.056.021.096 0 .043-.008.077-.025.103-.016.025-.043.044-.08.056-.038.012-.088.018-.15.018z" fill="#a6e22e" transform="matrix(53.14 0 0 53.14 242.2641 416.327182)"/><path d="m.257.013c-.049 0-.088-.008-.116-.023-.029-.014-.049-.038-.062-.072-.013-.033-.019-.079-.019-.136v-.344h.105v.344c0 .037.002.066.007.084.005.019.015.032.028.039.013.008.032.011.057.011.038 0 .066-.003.084-.009.019-.006.032-.017.039-.032s.011-.038.011-.069v-.368h.105v.562h-.105v-.009c-.032.014-.076.022-.134.022z" fill="#a6e22e" transform="matrix(53.14 0 0 53.14 271.2498444 416.327182)"/><path d="m.284.013c-.054 0-.097-.007-.129-.022-.032-.014-.063-.039-.09-.075v-.643h.104v.172c.035-.013.073-.02.115-.02.054 0 .097.01.129.03s.055.052.069.094c.014.043.021.099.021.171 0 .071-.007.128-.021.17s-.037.073-.069.093c-.032.02-.075.03-.129.03zm0-.097c.029 0 .052-.006.069-.017.016-.012.028-.032.035-.06s.01-.067.01-.119-.003-.091-.01-.12c-.007-.028-.019-.048-.035-.06-.017-.012-.04-.018-.069-.018-.032 0-.056.003-.072.01s-.027.02-.033.038c-.007.018-.01.045-.01.081v.232c.015.013.03.022.046.027.015.004.038.006.069.006z" fill="#a6e22e" transform="matrix(53.14 0 0 53.14 300.234526 416.327182)"/><path d="m.332.013c-.044 0-.08-.008-.107-.023-.026-.015-.046-.039-.058-.072-.013-.033-.019-.077-.019-.131v-.263h-.113v-.097h.113v-.154h.105v.154h.188v.097h-.188v.263c0 .034.002.06.007.079.005.018.013.031.024.039s.027.011.048.011c.022 0 .038-.001.048-.004s.018-.009.022-.017c.005-.007.01-.021.016-.04l.098.033c-.009.032-.021.056-.035.074-.015.018-.034.031-.057.039s-.054.012-.092.012z" fill="#a6e22e" transform="matrix(53.14 0 0 53.14 329.2202704 416.327182)"/><path d="m.085 0v-.562h.104v.047c.015-.016.033-.03.056-.042s.048-.018.075-.018c.035 0 .064.005.087.015.023.009.043.024.06.045.016.021.031.05.045.087l-.094.043c-.008-.027-.016-.047-.023-.06-.008-.012-.017-.021-.028-.026s-.027-.007-.047-.007c-.047 0-.081.016-.101.048-.02.033-.03.08-.03.142v.288z" fill="#a6e22e" transform="matrix(53.14 0 0 53.14 358.2060148 416.327182)"/><path d="m.249.013c-.053 0-.096-.006-.128-.018-.031-.013-.054-.032-.069-.057-.014-.026-.021-.06-.021-.103 0-.049.007-.086.021-.113.014-.026.036-.045.068-.055.031-.011.074-.016.129-.016h.115v-.02c0-.026-.004-.045-.01-.059s-.018-.024-.034-.03c-.016-.005-.04-.008-.071-.008-.025 0-.045.002-.058.007-.013.006-.024.015-.031.028s-.014.034-.021.061l-.1-.025c.011-.043.025-.077.041-.103s.038-.045.065-.058c.028-.012.062-.019.104-.019.079 0 .135.017.169.051.033.034.05.085.05.155v.213c0 .024.003.041.007.049.005.008.016.012.031.012.005 0 .016-.001.033-.002v.096c-.007.001-.017.001-.03.001-.053 0-.089-.012-.109-.036-.016.017-.037.03-.061.037-.024.008-.054.012-.09.012zm0-.097c.031 0 .055-.003.071-.011.016-.007.028-.019.034-.037.006-.017.01-.043.01-.076v-.045h-.115c-.034 0-.059.002-.074.005-.014.004-.024.011-.03.023-.007.012-.01.032-.01.06 0 .022.003.039.01.05.006.011.017.019.033.024s.04.007.071.007z" fill="#a6e22e" transform="matrix(53.14 0 0 53.14 387.1917592 416.327182)"/><path d="m.289.013c-.061 0-.108-.01-.144-.03-.035-.02-.06-.051-.075-.093-.016-.042-.024-.099-.024-.171 0-.071.008-.128.024-.171.015-.042.041-.073.076-.093.036-.02.085-.03.147-.03.052 0 .095.01.126.029.032.018.062.052.091.1l-.087.051c-.015-.023-.028-.041-.039-.052-.011-.012-.024-.02-.037-.024-.014-.005-.032-.007-.054-.007-.038 0-.067.006-.087.018-.02.011-.035.031-.043.059s-.012.068-.012.12.004.092.012.12.022.048.042.06c.019.011.047.017.084.017.022 0 .04-.002.054-.007s.027-.013.039-.025.026-.029.042-.053l.086.053c-.03.048-.061.082-.093.101-.032.018-.075.028-.128.028z" fill="#a6e22e" transform="matrix(53.14 0 0 53.14 416.1764408 416.327182)"/><path d="m.332.013c-.044 0-.08-.008-.107-.023-.026-.015-.046-.039-.058-.072-.013-.033-.019-.077-.019-.131v-.263h-.113v-.097h.113v-.154h.105v.154h.188v.097h-.188v.263c0 .034.002.06.007.079.005.018.013.031.024.039s.027.011.048.011c.022 0 .038-.001.048-.004s.018-.009.022-.017c.005-.007.01-.021.016-.04l.098.033c-.009.032-.021.056-.035.074-.015.018-.034.031-.057.039s-.054.012-.092.012z" fill="#a6e22e" transform="matrix(53.14 0 0 53.14 445.1621852 416.327182)"/><path d="m.273.013c-.032 0-.053-.006-.065-.017s-.018-.031-.018-.06.006-.049.018-.06.033-.017.065-.017c.031 0 .053.006.065.017s.017.031.017.06-.005.049-.017.06-.034.017-.065.017z" fill="#a6e22e" transform="matrix(53.14 0 0 53.14 474.1479296 416.327182)"/><path d="m.053.165v-.727h.105v.006c.035-.012.076-.019.121-.019.056 0 .101.01.134.03.032.02.056.051.07.093.014.043.022.099.022.17s-.008.128-.022.171c-.014.042-.038.074-.07.094-.033.02-.078.03-.134.03-.043 0-.083-.008-.121-.022v.174zm.226-.249c.032 0 .056-.006.073-.018.018-.012.03-.032.037-.06s.011-.068.011-.12c0-.051-.004-.091-.011-.119s-.019-.048-.037-.059c-.017-.012-.041-.018-.073-.018-.081 0-.121.017-.121.053v.214c0 .044.01.076.028.096.019.021.05.031.093.031z" fill="#a6e22e" transform="matrix(53.14 0 0 53.14 503.133674 416.327182)"/><path d="m.122.178c-.024 0-.045-.003-.062-.009s-.036-.016-.056-.031l.041-.088c.023.014.039.023.048.026.008.004.018.006.029.006.022 0 .039-.003.053-.009.013-.006.025-.017.035-.032.01-.014.019-.036.029-.066l-.188-.537h.109l.135.4.136-.4h.11l-.196.545c-.017.049-.036.088-.055.116s-.042.048-.069.061c-.026.012-.059.018-.099.018z" fill="#a6e22e" transform="matrix(53.14 0 0 53.14 532.1183556 416.327182)"/><path d="m.053.165v-.727h.105v.006c.035-.012.076-.019.121-.019.056 0 .101.01.134.03.032.02.056.051.07.093.014.043.022.099.022.17s-.008.128-.022.171c-.014.042-.038.074-.07.094-.033.02-.078.03-.134.03-.043 0-.083-.008-.121-.022v.174zm.226-.249c.032 0 .056-.006.073-.018.018-.012.03-.032.037-.06s.011-.068.011-.12c0-.051-.004-.091-.011-.119s-.019-.048-.037-.059c-.017-.012-.041-.018-.073-.018-.081 0-.121.017-.121.053v.214c0 .044.01.076.028.096.019.021.05.031.093.031z" fill="#a6e22e" transform="matrix(53.14 0 0 53.14 270.386 614.588182)"/><path d="m.085 0v-.562h.104v.047c.015-.016.033-.03.056-.042s.048-.018.075-.018c.035 0 .064.005.087.015.023.009.043.024.06.045.016.021.031.05.045.087l-.094.043c-.008-.027-.016-.047-.023-.06-.008-.012-.017-.021-.028-.026s-.027-.007-.047-.007c-.047 0-.081.016-.101.048-.02.033-.03.08-.03.142v.288z" fill="#a6e22e" transform="matrix(53.14 0 0 53.14 299.3717444 614.588182)"/><path d="m.273.013c-.057 0-.101-.01-.133-.03-.033-.02-.056-.051-.07-.094-.015-.042-.022-.099-.022-.17s.007-.127.022-.17c.014-.042.037-.074.07-.094.032-.02.076-.03.133-.03.056 0 .101.01.133.03.033.02.057.052.071.094.014.043.021.099.021.17s-.007.128-.021.17c-.014.043-.038.074-.071.094-.032.02-.077.03-.133.03zm0-.097c.031 0 .056-.006.073-.017.017-.012.029-.032.037-.06.007-.029.011-.068.011-.12 0-.051-.004-.091-.011-.119-.008-.029-.02-.049-.037-.06-.017-.012-.042-.018-.073-.018-.032 0-.056.006-.073.018-.017.011-.029.031-.036.06-.008.028-.011.068-.011.119 0 .052.003.091.011.12.007.028.019.048.036.06.017.011.041.017.073.017z" fill="#a6e22e" transform="matrix(53.14 0 0 53.14 328.356426 614.588182)"/><path d="m.268.013c-.056 0-.101-.01-.133-.03s-.056-.051-.07-.093-.021-.099-.021-.17c0-.072.007-.128.021-.171.014-.042.038-.074.07-.094s.077-.03.133-.03c.043 0 .084.008.122.022v-.174h.105v.727h-.105v-.006c-.035.012-.076.019-.122.019zm0-.097c.042 0 .073-.004.092-.014.02-.009.03-.022.03-.038v-.215c0-.044-.01-.076-.029-.096-.019-.021-.05-.031-.093-.031-.031 0-.056.006-.073.018s-.029.032-.036.06c-.007.029-.011.068-.011.12s.004.091.011.119.019.048.036.06c.017.011.042.017.073.017z" fill="#a6e22e" transform="matrix(53.14 0 0 53.14 357.3421704 614.588182)"/><path d="m.257.013c-.049 0-.088-.008-.116-.023-.029-.014-.049-.038-.062-.072-.013-.033-.019-.079-.019-.136v-.344h.105v.344c0 .037.002.066.007.084.005.019.015.032.028.039.013.008.032.011.057.011.038 0 .066-.003.084-.009.019-.006.032-.017.039-.032s.011-.038.011-.069v-.368h.105v.562h-.105v-.009c-.032.014-.076.022-.134.022z" fill="#a6e22e" transform="matrix(53.14 0 0 53.14 386.3279148 614.588182)"/><path d="m.289.013c-.061 0-.108-.01-.144-.03-.035-.02-.06-.051-.075-.093-.016-.042-.024-.099-.024-.171 0-.071.008-.128.024-.171.015-.042.041-.073.076-.093.036-.02.085-.03.147-.03.052 0 .095.01.126.029.032.018.062.052.091.1l-.087.051c-.015-.023-.028-.041-.039-.052-.011-.012-.024-.02-.037-.024-.014-.005-.032-.007-.054-.007-.038 0-.067.006-.087.018-.02.011-.035.031-.043.059s-.012.068-.012.12.004.092.012.12.022.048.042.06c.019.011.047.017.084.017.022 0 .04-.002.054-.007s.027-.013.039-.025.026-.029.042-.053l.086.053c-.03.048-.061.082-.093.101-.032.018-.075.028-.128.028z" fill="#a6e22e" transform="matrix(53.14 0 0 53.14 415.3136592 614.588182)"/><path d="m.332.013c-.044 0-.08-.008-.107-.023-.026-.015-.046-.039-.058-.072-.013-.033-.019-.077-.019-.131v-.263h-.113v-.097h.113v-.154h.105v.154h.188v.097h-.188v.263c0 .034.002.06.007.079.005.018.013.031.024.039s.027.011.048.011c.022 0 .038-.001.048-.004s.018-.009.022-.017c.005-.007.01-.021.016-.04l.098.033c-.009.032-.021.056-.035.074-.015.018-.034.031-.057.039s-.054.012-.092.012z" fill="#a6e22e" transform="matrix(53.14 0 0 53.14 444.2983408 614.588182)"/><path d="m.273.013c-.032 0-.053-.006-.065-.017s-.018-.031-.018-.06.006-.049.018-.06.033-.017.065-.017c.031 0 .053.006.065.017s.017.031.017.06-.005.049-.017.06-.034.017-.065.017z" fill="#a6e22e" transform="matrix(53.14 0 0 53.14 473.2840852 614.588182)"/><path d="m.053.165v-.727h.105v.006c.035-.012.076-.019.121-.019.056 0 .101.01.134.03.032.02.056.051.07.093.014.043.022.099.022.17s-.008.128-.022.171c-.014.042-.038.074-.07.094-.033.02-.078.03-.134.03-.043 0-.083-.008-.121-.022v.174zm.226-.249c.032 0 .056-.006.073-.018.018-.012.03-.032.037-.06s.011-.068.011-.12c0-.051-.004-.091-.011-.119s-.019-.048-.037-.059c-.017-.012-.041-.018-.073-.018-.081 0-.121.017-.121.053v.214c0 .044.01.076.028.096.019.021.05.031.093.031z" fill="#a6e22e" transform="matrix(53.14 0 0 53.14 502.2698296 614.588182)"/><path d="m.122.178c-.024 0-.045-.003-.062-.009s-.036-.016-.056-.031l.041-.088c.023.014.039.023.048.026.008.004.018.006.029.006.022 0 .039-.003.053-.009.013-.006.025-.017.035-.032.01-.014.019-.036.029-.066l-.188-.537h.109l.135.4.136-.4h.11l-.196.545c-.017.049-.036.088-.055.116s-.042.048-.069.061c-.026.012-.059.018-.099.018z" fill="#a6e22e" transform="matrix(53.14 0 0 53.14 531.255574 614.588182)"/><path d="m.268.013c-.056 0-.101-.01-.133-.03s-.056-.051-.07-.093-.021-.099-.021-.17c0-.072.007-.128.021-.171.014-.042.038-.074.07-.094s.077-.03.133-.03c.043 0 .084.008.122.022v-.174h.105v.727h-.105v-.006c-.035.012-.076.019-.122.019zm0-.097c.042 0 .073-.004.092-.014.02-.009.03-.022.03-.038v-.215c0-.044-.01-.076-.029-.096-.019-.021-.05-.031-.093-.031-.031 0-.056.006-.073.018s-.029.032-.036.06c-.007.029-.011.068-.011.12s.004.091.011.119.019.048.036.06c.017.011.042.017.073.017z" fill="#a6e22e" transform="matrix(53.14 0 0 53.14 242.2641 816.327182)"/><path d="m.349-.562v.466h.159v.096h-.423v-.096h.16v-.369h-.115v-.097zm-.069-.082c-.03 0-.051-.005-.062-.016-.011-.01-.017-.03-.017-.058 0-.029.006-.048.017-.059.011-.01.032-.016.062-.016s.051.006.063.016c.011.011.017.03.017.059 0 .028-.006.048-.017.058-.012.011-.033.016-.063.016z" fill="#a6e22e" transform="matrix(53.14 0 0 53.14 271.2498444 816.327182)"/><path d="m.319 0h-.094l-.203-.562h.107l.143.407.143-.407h.108z" fill="#a6e22e" transform="matrix(53.14 0 0 53.14 300.234526 816.327182)"/><path d="m.349-.562v.466h.159v.096h-.423v-.096h.16v-.369h-.115v-.097zm-.069-.082c-.03 0-.051-.005-.062-.016-.011-.01-.017-.03-.017-.058 0-.029.006-.048.017-.059.011-.01.032-.016.062-.016s.051.006.063.016c.011.011.017.03.017.059 0 .028-.006.048-.017.058-.012.011-.033.016-.063.016z" fill="#a6e22e" transform="matrix(53.14 0 0 53.14 329.2202704 816.327182)"/><path d="m.25.013c-.05 0-.09-.009-.12-.028-.029-.018-.055-.05-.079-.096l.083-.068c.012.028.022.048.031.061s.02.021.032.027c.013.005.031.007.053.007.042 0 .073-.002.095-.007.021-.005.035-.013.043-.024s.012-.027.012-.049c0-.021-.003-.036-.01-.046-.006-.01-.017-.017-.034-.022-.016-.005-.044-.01-.082-.014-.074-.009-.127-.026-.159-.049-.033-.023-.05-.06-.05-.11 0-.041.008-.074.023-.098.015-.025.04-.043.073-.054.033-.012.078-.018.134-.018.054 0 .095.008.125.024s.057.044.081.084l-.076.074c-.014-.025-.025-.043-.035-.054-.01-.012-.022-.02-.035-.024-.014-.005-.034-.007-.06-.007-.034 0-.06.002-.078.006s-.03.012-.037.022-.01.025-.01.045c0 .014.004.025.011.032.007.008.018.013.033.017.014.003.037.007.067.011.057.009.102.019.134.032.032.012.055.03.069.053.014.024.021.056.021.096 0 .043-.008.077-.025.103-.016.025-.043.044-.08.056-.038.012-.088.018-.15.018z" fill="#a6e22e" transform="matrix(53.14 0 0 53.14 358.2060148 816.327182)"/><path d="m.349-.562v.466h.159v.096h-.423v-.096h.16v-.369h-.115v-.097zm-.069-.082c-.03 0-.051-.005-.062-.016-.011-.01-.017-.03-.017-.058 0-.029.006-.048.017-.059.011-.01.032-.016.062-.016s.051.006.063.016c.011.011.017.03.017.059 0 .028-.006.048-.017.058-.012.011-.033.016-.063.016z" fill="#a6e22e" transform="matrix(53.14 0 0 53.14 387.1917592 816.327182)"/><path d="m.273.013c-.057 0-.101-.01-.133-.03-.033-.02-.056-.051-.07-.094-.015-.042-.022-.099-.022-.17s.007-.127.022-.17c.014-.042.037-.074.07-.094.032-.02.076-.03.133-.03.056 0 .101.01.133.03.033.02.057.052.071.094.014.043.021.099.021.17s-.007.128-.021.17c-.014.043-.038.074-.071.094-.032.02-.077.03-.133.03zm0-.097c.031 0 .056-.006.073-.017.017-.012.029-.032.037-.06.007-.029.011-.068.011-.12 0-.051-.004-.091-.011-.119-.008-.029-.02-.049-.037-.06-.017-.012-.042-.018-.073-.018-.032 0-.056.006-.073.018-.017.011-.029.031-.036.06-.008.028-.011.068-.011.119 0 .052.003.091.011.12.007.028.019.048.036.06.017.011.041.017.073.017z" fill="#a6e22e" transform="matrix(53.14 0 0 53.14 416.1764408 816.327182)"/><path d="m.06 0v-.562h.105v.014c.038-.018.082-.027.133-.027.052 0 .092.008.12.022s.048.038.06.072c.012.033.018.081.018.142v.339h-.105v-.339c0-.036-.003-.064-.009-.084-.005-.02-.015-.034-.028-.042-.013-.009-.032-.013-.056-.013-.039 0-.068.003-.087.01-.018.007-.031.02-.037.037-.006.018-.009.045-.009.082v.349z" fill="#a6e22e" transform="matrix(53.14 0 0 53.14 445.1621852 816.327182)"/><path d="m.273.013c-.032 0-.053-.006-.065-.017s-.018-.031-.018-.06.006-.049.018-.06.033-.017.065-.017c.031 0 .053.006.065.017s.017.031.017.06-.005.049-.017.06-.034.017-.065.017z" fill="#a6e22e" transform="matrix(53.14 0 0 53.14 474.1479296 816.327182)"/><path d="m.053.165v-.727h.105v.006c.035-.012.076-.019.121-.019.056 0 .101.01.134.03.032.02.056.051.07.093.014.043.022.099.022.17s-.008.128-.022.171c-.014.042-.038.074-.07.094-.033.02-.078.03-.134.03-.043 0-.083-.008-.121-.022v.174zm.226-.249c.032 0 .056-.006.073-.018.018-.012.03-.032.037-.06s.011-.068.011-.12c0-.051-.004-.091-.011-.119s-.019-.048-.037-.059c-.017-.012-.041-.018-.073-.018-.081 0-.121.017-.121.053v.214c0 .044.01.076.028.096.019.021.05.031.093.031z" fill="#a6e22e" transform="matrix(53.14 0 0 53.14 503.133674 816.327182)"/><path d="m.122.178c-.024 0-.045-.003-.062-.009s-.036-.016-.056-.031l.041-.088c.023.014.039.023.048.026.008.004.018.006.029.006.022 0 .039-.003.053-.009.013-.006.025-.017.035-.032.01-.014.019-.036.029-.066l-.188-.537h.109l.135.4.136-.4h.11l-.196.545c-.017.049-.036.088-.055.116s-.042.048-.069.061c-.026.012-.059.018-.099.018z" fill="#a6e22e" transform="matrix(53.14 0 0 53.14 532.1183556 816.327182)"/></g></g></svg>