<svg clip-rule="evenodd" fill-rule="evenodd" stroke-miterlimit="1.5" viewBox="0 0 1602 1007" xmlns="http://www.w3.org/2000/svg"><path d="m135 39h1700v1007h-1700z" fill="#fff" transform="matrix(.942081 0 0 1 -127.181 -39)"/><path d="m1700 367.174c0-26.036-20.72-47.174-46.23-47.174h-990.535c-25.518 0-46.235 21.138-46.235 47.174v334.505c0 26.036 20.717 47.174 46.235 47.174h990.535c25.51 0 46.23-21.138 46.23-47.174z" fill="#d9d9d9" transform="matrix(1.02031 0 0 1 -193.7568 -33.42625)"/><circle cx="226.86048" cy="463.53836" fill="#2385be" r="139.50016" stroke-width="4.35938"/><g fill-rule="nonzero"><path d="m52 22.9h-37.5c-1.4 0-2.5 1.1-2.5 2.4v22.2c0 1.4 1.1 2.5 2.5 2.5h35c1.4 0 2.5-1.1 2.5-2.5z" fill="#231f20" opacity=".2" transform="matrix(4.35938 0 0 4.35938 87.36032 324.0382)"/><path d="m52 20.9h-37.5c-1.4 0-2.5 1.1-2.5 2.4v22.2c0 1.4 1.1 2.5 2.5 2.5h35c1.4 0 2.5-1.1 2.5-2.5z" fill="#fff" transform="matrix(4.35938 0 0 4.35938 87.36032 324.0382)"/><path d="m52 18.5c0-1.4-1.1-2.5-2.5-2.5h-12.5c-1.4 0-2.5 1.1-2.5 2.5 0 0-.3 2.3-2.5 2.5h20z" fill="#e0e0d1" transform="matrix(4.35938 0 0 4.35938 87.36032 324.0382)"/><path d="m.273.013c-.056 0-.1-.01-.132-.029-.031-.02-.054-.051-.069-.094-.014-.042-.021-.1-.021-.172v-.445h.104v.445c0 .053.004.093.011.122.007.028.019.048.035.059.017.012.041.017.072.017s.055-.005.072-.017c.017-.011.028-.031.035-.059.007-.029.011-.069.011-.122v-.445h.104v.445c0 .072-.007.13-.021.172-.014.043-.037.074-.069.094-.033.019-.077.029-.132.029z" fill="#2385be" transform="matrix(101.92239249304 0 0 101.92239249304 199.01857597292 512.70117204364)"/><path d="m.257.013c-.049 0-.088-.008-.116-.023-.029-.014-.049-.038-.062-.072-.013-.033-.019-.079-.019-.136v-.344h.105v.344c0 .037.002.066.007.084.005.019.015.032.028.039.013.008.032.011.057.011.038 0 .066-.003.084-.009.019-.006.032-.017.039-.032s.011-.038.011-.069v-.368h.105v.562h-.105v-.009c-.032.014-.076.022-.134.022z" fill="#2385be" transform="matrix(67.37517096945 0 0 67.37517096945 61.18170689626 677.11012314408)"/><path d="m.06 0v-.562h.105v.014c.038-.018.082-.027.133-.027.052 0 .092.008.12.022s.048.038.06.072c.012.033.018.081.018.142v.339h-.105v-.339c0-.036-.003-.064-.009-.084-.005-.02-.015-.034-.028-.042-.013-.009-.032-.013-.056-.013-.039 0-.068.003-.087.01-.018.007-.031.02-.037.037-.006.018-.009.045-.009.082v.349z" fill="#2385be" transform="matrix(67.37517096945 0 0 67.37517096945 97.93180015232 677.11012314408)"/><path d="m.332.013c-.044 0-.08-.008-.107-.023-.026-.015-.046-.039-.058-.072-.013-.033-.019-.077-.019-.131v-.263h-.113v-.097h.113v-.154h.105v.154h.188v.097h-.188v.263c0 .034.002.06.007.079.005.018.013.031.024.039s.027.011.048.011c.022 0 .038-.001.048-.004s.018-.009.022-.017c.005-.007.01-.021.016-.04l.098.033c-.009.032-.021.056-.035.074-.015.018-.034.031-.057.039s-.054.012-.092.012z" fill="#2385be" transform="matrix(67.37517096945 0 0 67.37517096945 134.68189340839 677.11012314408)"/><path d="m.085 0v-.562h.104v.047c.015-.016.033-.03.056-.042s.048-.018.075-.018c.035 0 .064.005.087.015.023.009.043.024.06.045.016.021.031.05.045.087l-.094.043c-.008-.027-.016-.047-.023-.06-.008-.012-.017-.021-.028-.026s-.027-.007-.047-.007c-.047 0-.081.016-.101.048-.02.033-.03.08-.03.142v.288z" fill="#2385be" transform="matrix(67.37517096945 0 0 67.37517096945 171.43198666445 677.11012314408)"/><path d="m.249.013c-.053 0-.096-.006-.128-.018-.031-.013-.054-.032-.069-.057-.014-.026-.021-.06-.021-.103 0-.049.007-.086.021-.113.014-.026.036-.045.068-.055.031-.011.074-.016.129-.016h.115v-.02c0-.026-.004-.045-.01-.059s-.018-.024-.034-.03c-.016-.005-.04-.008-.071-.008-.025 0-.045.002-.058.007-.013.006-.024.015-.031.028s-.014.034-.021.061l-.1-.025c.011-.043.025-.077.041-.103s.038-.045.065-.058c.028-.012.062-.019.104-.019.079 0 .135.017.169.051.033.034.05.085.05.155v.213c0 .024.003.041.007.049.005.008.016.012.031.012.005 0 .016-.001.033-.002v.096c-.007.001-.017.001-.03.001-.053 0-.089-.012-.109-.036-.016.017-.037.03-.061.037-.024.008-.054.012-.09.012zm0-.097c.031 0 .055-.003.071-.011.016-.007.028-.019.034-.037.006-.017.01-.043.01-.076v-.045h-.115c-.034 0-.059.002-.074.005-.014.004-.024.011-.03.023-.007.012-.01.032-.01.06 0 .022.003.039.01.05.006.011.017.019.033.024s.04.007.071.007z" fill="#2385be" transform="matrix(67.37517096945 0 0 67.37517096945 208.18207992052 677.11012314408)"/><path d="m.289.013c-.061 0-.108-.01-.144-.03-.035-.02-.06-.051-.075-.093-.016-.042-.024-.099-.024-.171 0-.071.008-.128.024-.171.015-.042.041-.073.076-.093.036-.02.085-.03.147-.03.052 0 .095.01.126.029.032.018.062.052.091.1l-.087.051c-.015-.023-.028-.041-.039-.052-.011-.012-.024-.02-.037-.024-.014-.005-.032-.007-.054-.007-.038 0-.067.006-.087.018-.02.011-.035.031-.043.059s-.012.068-.012.12.004.092.012.12.022.048.042.06c.019.011.047.017.084.017.022 0 .04-.002.054-.007s.027-.013.039-.025.026-.029.042-.053l.086.053c-.03.048-.061.082-.093.101-.032.018-.075.028-.128.028z" fill="#2385be" transform="matrix(67.37517096945 0 0 67.37517096945 244.93217317658 677.11012314408)"/><path d="m.19 0h-.105v-.727h.105v.378h.002l.183-.213h.126l-.216.259.252.303h-.126l-.216-.253h-.005z" fill="#2385be" transform="matrix(67.37517096945 0 0 67.37517096945 281.68226643265 677.11012314408)"/><path d="m.275-.575c.059 0 .105.011.138.033.033.021.057.055.07.102.014.046.02.108.019.187h-.361c.002.044.007.078.016.102s.022.042.041.052.045.015.077.015c.024 0 .043-.002.058-.006.015-.005.029-.013.041-.025.013-.012.027-.03.044-.053l.084.055c-.03.047-.062.08-.096.098-.033.018-.077.028-.131.028-.06 0-.107-.01-.142-.03s-.06-.051-.075-.094c-.015-.042-.023-.099-.023-.17s.008-.127.023-.17c.015-.042.04-.074.075-.094s.082-.03.142-.03zm.12.226c-.004-.033-.01-.059-.018-.077-.008-.019-.02-.032-.037-.04-.016-.008-.037-.012-.065-.012-.03 0-.054.004-.072.012s-.032.021-.042.04c-.009.018-.015.044-.018.077z" fill="#2385be" transform="matrix(67.37517096945 0 0 67.37517096945 318.43235968871 677.11012314408)"/><path d="m.268.013c-.056 0-.101-.01-.133-.03s-.056-.051-.07-.093-.021-.099-.021-.17c0-.072.007-.128.021-.171.014-.042.038-.074.07-.094s.077-.03.133-.03c.043 0 .084.008.122.022v-.174h.105v.727h-.105v-.006c-.035.012-.076.019-.122.019zm0-.097c.042 0 .073-.004.092-.014.02-.009.03-.022.03-.038v-.215c0-.044-.01-.076-.029-.096-.019-.021-.05-.031-.093-.031-.031 0-.056.006-.073.018s-.029.032-.036.06c-.007.029-.011.068-.011.12s.004.091.011.119.019.048.036.06c.017.011.042.017.073.017z" fill="#2385be" transform="matrix(67.37517096945 0 0 67.37517096945 355.18245294478 677.11012314408)"/></g><circle cx="218.77792" cy="826.10144" fill="#23b4be" r="87.47264" stroke-width="2.73352"/><path d="m52 22.9h-37.5c-1.4 0-2.5 1.1-2.5 2.4v22.2c0 1.4 1.1 2.5 2.5 2.5h35c1.4 0 2.5-1.1 2.5-2.5z" fill="#231f20" fill-rule="nonzero" opacity=".2" transform="matrix(2.73352 0 0 2.73352 131.30528 738.6288)"/><path d="m52 20.9h-37.5c-1.4 0-2.5 1.1-2.5 2.4v22.2c0 1.4 1.1 2.5 2.5 2.5h35c1.4 0 2.5-1.1 2.5-2.5z" fill="#fff" fill-rule="nonzero" transform="matrix(2.73352 0 0 2.73352 131.30528 738.6288)"/><path d="m52 18.5c0-1.4-1.1-2.5-2.5-2.5h-12.5c-1.4 0-2.5 1.1-2.5 2.5 0 0-.3 2.3-2.5 2.5h20z" fill="#e0e0d1" fill-rule="nonzero" transform="matrix(2.73352 0 0 2.73352 131.30528 738.6288)"/><path d="m.473-.727v.096h-.148v.535h.148v.096h-.399v-.096h.147v-.535h-.147v-.096z" fill="#23b4be" fill-rule="nonzero" transform="matrix(63.90975283815 0 0 63.90975283815 201.31984075568 856.92865166256)"/><path d="m.349-.562v.466h.159v.096h-.423v-.096h.16v-.369h-.115v-.097zm-.069-.082c-.03 0-.051-.005-.062-.016-.011-.01-.017-.03-.017-.058 0-.029.006-.048.017-.059.011-.01.032-.016.062-.016s.051.006.063.016c.011.011.017.03.017.059 0 .028-.006.048-.017.058-.012.011-.033.016-.063.016z" fill="#23b4be" fill-rule="nonzero" transform="matrix(42.24714921581 0 0 42.24714921581 137.9340557493 960.02018211232)"/><path d="m.271.178c-.043 0-.076-.006-.101-.017-.026-.012-.051-.032-.075-.062l.076-.065c.017.02.031.033.043.039s.031.009.057.009c.031 0 .054-.004.071-.012.016-.007.028-.02.034-.039.007-.018.01-.045.01-.081v-.002c-.038.015-.078.022-.121.022-.057 0-.101-.01-.134-.03-.033-.021-.056-.053-.071-.097-.014-.045-.021-.104-.021-.179 0-.057.008-.103.022-.138.015-.034.039-.06.072-.076.032-.016.076-.025.132-.025.044 0 .085.007.121.019v-.006h.105v.504c0 .058-.007.104-.021.138-.015.034-.038.059-.07.075-.031.015-.075.023-.129.023zm-.006-.304c.043 0 .074-.011.093-.031.019-.021.028-.053.028-.097v-.171c0-.017-.009-.03-.029-.039s-.051-.014-.092-.014c-.033 0-.057.004-.074.013-.017.008-.029.022-.036.043-.007.02-.01.049-.01.086 0 .055.003.098.01.128.008.03.02.051.037.063s.041.019.073.019z" fill="#23b4be" fill-rule="nonzero" transform="matrix(42.24714921581 0 0 42.24714921581 160.97795532156 960.02018211232)"/><path d="m.06 0v-.562h.105v.014c.038-.018.082-.027.133-.027.052 0 .092.008.12.022s.048.038.06.072c.012.033.018.081.018.142v.339h-.105v-.339c0-.036-.003-.064-.009-.084-.005-.02-.015-.034-.028-.042-.013-.009-.032-.013-.056-.013-.039 0-.068.003-.087.01-.018.007-.031.02-.037.037-.006.018-.009.045-.009.082v.349z" fill="#23b4be" fill-rule="nonzero" transform="matrix(42.24714921581 0 0 42.24714921581 184.02185489382 960.02018211232)"/><path d="m.273.013c-.057 0-.101-.01-.133-.03-.033-.02-.056-.051-.07-.094-.015-.042-.022-.099-.022-.17s.007-.127.022-.17c.014-.042.037-.074.07-.094.032-.02.076-.03.133-.03.056 0 .101.01.133.03.033.02.057.052.071.094.014.043.021.099.021.17s-.007.128-.021.17c-.014.043-.038.074-.071.094-.032.02-.077.03-.133.03zm0-.097c.031 0 .056-.006.073-.017.017-.012.029-.032.037-.06.007-.029.011-.068.011-.12 0-.051-.004-.091-.011-.119-.008-.029-.02-.049-.037-.06-.017-.012-.042-.018-.073-.018-.032 0-.056.006-.073.018-.017.011-.029.031-.036.06-.008.028-.011.068-.011.119 0 .052.003.091.011.12.007.028.019.048.036.06.017.011.041.017.073.017z" fill="#23b4be" fill-rule="nonzero" transform="matrix(42.24714921581 0 0 42.24714921581 207.06575446608 960.02018211232)"/><path d="m.085 0v-.562h.104v.047c.015-.016.033-.03.056-.042s.048-.018.075-.018c.035 0 .064.005.087.015.023.009.043.024.06.045.016.021.031.05.045.087l-.094.043c-.008-.027-.016-.047-.023-.06-.008-.012-.017-.021-.028-.026s-.027-.007-.047-.007c-.047 0-.081.016-.101.048-.02.033-.03.08-.03.142v.288z" fill="#23b4be" fill-rule="nonzero" transform="matrix(42.24714921581 0 0 42.24714921581 230.10965403834 960.02018211232)"/><path d="m.275-.575c.059 0 .105.011.138.033.033.021.057.055.07.102.014.046.02.108.019.187h-.361c.002.044.007.078.016.102s.022.042.041.052.045.015.077.015c.024 0 .043-.002.058-.006.015-.005.029-.013.041-.025.013-.012.027-.03.044-.053l.084.055c-.03.047-.062.08-.096.098-.033.018-.077.028-.131.028-.06 0-.107-.01-.142-.03s-.06-.051-.075-.094c-.015-.042-.023-.099-.023-.17s.008-.127.023-.17c.015-.042.04-.074.075-.094s.082-.03.142-.03zm.12.226c-.004-.033-.01-.059-.018-.077-.008-.019-.02-.032-.037-.04-.016-.008-.037-.012-.065-.012-.03 0-.054.004-.072.012s-.032.021-.042.04c-.009.018-.015.044-.018.077z" fill="#23b4be" fill-rule="nonzero" transform="matrix(42.24714921581 0 0 42.24714921581 253.1535536106 960.02018211232)"/><path d="m.268.013c-.056 0-.101-.01-.133-.03s-.056-.051-.07-.093-.021-.099-.021-.17c0-.072.007-.128.021-.171.014-.042.038-.074.07-.094s.077-.03.133-.03c.043 0 .084.008.122.022v-.174h.105v.727h-.105v-.006c-.035.012-.076.019-.122.019zm0-.097c.042 0 .073-.004.092-.014.02-.009.03-.022.03-.038v-.215c0-.044-.01-.076-.029-.096-.019-.021-.05-.031-.093-.031-.031 0-.056.006-.073.018s-.029.032-.036.06c-.007.029-.011.068-.011.12s.004.091.011.119.019.048.036.06c.017.011.042.017.073.017z" fill="#23b4be" fill-rule="nonzero" transform="matrix(42.24714921581 0 0 42.24714921581 276.19745318286 960.02018211232)"/><circle cx="617.10048" cy="463.53836" fill="#b7305e" r="139.50016" stroke-width="4.35938"/><path d="m52 22.9h-37.5c-1.4 0-2.5 1.1-2.5 2.4v22.2c0 1.4 1.1 2.5 2.5 2.5h35c1.4 0 2.5-1.1 2.5-2.5z" fill="#231f20" fill-rule="nonzero" opacity=".2" transform="matrix(4.35938 0 0 4.35938 477.60032 324.0382)"/><path d="m52 20.9h-37.5c-1.4 0-2.5 1.1-2.5 2.4v22.2c0 1.4 1.1 2.5 2.5 2.5h35c1.4 0 2.5-1.1 2.5-2.5z" fill="#fff" fill-rule="nonzero" transform="matrix(4.35938 0 0 4.35938 477.60032 324.0382)"/><path d="m52 18.5c0-1.4-1.1-2.5-2.5-2.5h-12.5c-1.4 0-2.5 1.1-2.5 2.5 0 0-.3 2.3-2.5 2.5h20z" fill="#e0e0d1" fill-rule="nonzero" transform="matrix(4.35938 0 0 4.35938 477.60032 324.0382)"/><path d="m.13 0h-.105l.013-.727h.097l.138.341.138-.341h.097l.013.727h-.105l-.009-.456-.091.245h-.087l-.091-.245z" fill="#b7305e" fill-rule="nonzero" transform="matrix(101.92239249304 0 0 101.92239249304 589.25857597292 512.70117204364)"/><path d="m.022 0v-.562h.104v-.003c.028-.006.049-.009.066-.009.023 0 .041.004.054.01s.026.018.038.036c.015-.018.031-.03.046-.036.014-.006.035-.01.06-.01.035 0 .061.007.08.022.02.014.033.038.041.071.009.033.013.08.013.139v.342h-.105v-.342c0-.048-.002-.082-.007-.1s-.014-.027-.027-.027c-.016 0-.027.003-.036.01-.008.007-.014.019-.018.036s-.006.041-.006.071v.352h-.104v-.336c0-.051-.003-.085-.008-.104-.005-.02-.014-.029-.027-.029-.015 0-.028.003-.036.01s-.015.019-.018.036c-.004.017-.006.041-.006.071v.352z" fill="#b7305e" fill-rule="nonzero" transform="matrix(67.37517096945 0 0 67.37517096945 469.79675352429 677.11012314408)"/><path d="m.273.013c-.057 0-.101-.01-.133-.03-.033-.02-.056-.051-.07-.094-.015-.042-.022-.099-.022-.17s.007-.127.022-.17c.014-.042.037-.074.07-.094.032-.02.076-.03.133-.03.056 0 .101.01.133.03.033.02.057.052.071.094.014.043.021.099.021.17s-.007.128-.021.17c-.014.043-.038.074-.071.094-.032.02-.077.03-.133.03zm0-.097c.031 0 .056-.006.073-.017.017-.012.029-.032.037-.06.007-.029.011-.068.011-.12 0-.051-.004-.091-.011-.119-.008-.029-.02-.049-.037-.06-.017-.012-.042-.018-.073-.018-.032 0-.056.006-.073.018-.017.011-.029.031-.036.06-.008.028-.011.068-.011.119 0 .052.003.091.011.12.007.028.019.048.036.06.017.011.041.017.073.017z" fill="#b7305e" fill-rule="nonzero" transform="matrix(67.37517096945 0 0 67.37517096945 506.54684678036 677.11012314408)"/><path d="m.268.013c-.056 0-.101-.01-.133-.03s-.056-.051-.07-.093-.021-.099-.021-.17c0-.072.007-.128.021-.171.014-.042.038-.074.07-.094s.077-.03.133-.03c.043 0 .084.008.122.022v-.174h.105v.727h-.105v-.006c-.035.012-.076.019-.122.019zm0-.097c.042 0 .073-.004.092-.014.02-.009.03-.022.03-.038v-.215c0-.044-.01-.076-.029-.096-.019-.021-.05-.031-.093-.031-.031 0-.056.006-.073.018s-.029.032-.036.06c-.007.029-.011.068-.011.12s.004.091.011.119.019.048.036.06c.017.011.042.017.073.017z" fill="#b7305e" fill-rule="nonzero" transform="matrix(67.37517096945 0 0 67.37517096945 543.29694003642 677.11012314408)"/><path d="m.349-.562v.466h.159v.096h-.423v-.096h.16v-.369h-.115v-.097zm-.069-.082c-.03 0-.051-.005-.062-.016-.011-.01-.017-.03-.017-.058 0-.029.006-.048.017-.059.011-.01.032-.016.062-.016s.051.006.063.016c.011.011.017.03.017.059 0 .028-.006.048-.017.058-.012.011-.033.016-.063.016z" fill="#b7305e" fill-rule="nonzero" transform="matrix(67.37517096945 0 0 67.37517096945 580.04703329249 677.11012314408)"/><path d="m.347-.74c.041 0 .074.004.099.012s.045.021.06.038c.015.018.026.043.035.075l-.098.033c-.005-.019-.01-.032-.015-.04s-.014-.013-.025-.017c-.012-.003-.03-.005-.056-.005-.027 0-.047.004-.061.01-.013.006-.022.017-.028.034-.005.016-.008.04-.008.073v.052h.162v.097h-.162v.378h-.105v-.378h-.112v-.097h.112v-.052c0-.053.007-.095.02-.125.013-.031.034-.053.064-.067.029-.014.069-.021.118-.021z" fill="#b7305e" fill-rule="nonzero" transform="matrix(67.37517096945 0 0 67.37517096945 616.79712654855 677.11012314408)"/><path d="m.349-.562v.466h.159v.096h-.423v-.096h.16v-.369h-.115v-.097zm-.069-.082c-.03 0-.051-.005-.062-.016-.011-.01-.017-.03-.017-.058 0-.029.006-.048.017-.059.011-.01.032-.016.062-.016s.051.006.063.016c.011.011.017.03.017.059 0 .028-.006.048-.017.058-.012.011-.033.016-.063.016z" fill="#b7305e" fill-rule="nonzero" transform="matrix(67.37517096945 0 0 67.37517096945 653.54721980462 677.11012314408)"/><path d="m.275-.575c.059 0 .105.011.138.033.033.021.057.055.07.102.014.046.02.108.019.187h-.361c.002.044.007.078.016.102s.022.042.041.052.045.015.077.015c.024 0 .043-.002.058-.006.015-.005.029-.013.041-.025.013-.012.027-.03.044-.053l.084.055c-.03.047-.062.08-.096.098-.033.018-.077.028-.131.028-.06 0-.107-.01-.142-.03s-.06-.051-.075-.094c-.015-.042-.023-.099-.023-.17s.008-.127.023-.17c.015-.042.04-.074.075-.094s.082-.03.142-.03zm.12.226c-.004-.033-.01-.059-.018-.077-.008-.019-.02-.032-.037-.04-.016-.008-.037-.012-.065-.012-.03 0-.054.004-.072.012s-.032.021-.042.04c-.009.018-.015.044-.018.077z" fill="#b7305e" fill-rule="nonzero" transform="matrix(67.37517096945 0 0 67.37517096945 690.29731306068 677.11012314408)"/><path d="m.268.013c-.056 0-.101-.01-.133-.03s-.056-.051-.07-.093-.021-.099-.021-.17c0-.072.007-.128.021-.171.014-.042.038-.074.07-.094s.077-.03.133-.03c.043 0 .084.008.122.022v-.174h.105v.727h-.105v-.006c-.035.012-.076.019-.122.019zm0-.097c.042 0 .073-.004.092-.014.02-.009.03-.022.03-.038v-.215c0-.044-.01-.076-.029-.096-.019-.021-.05-.031-.093-.031-.031 0-.056.006-.073.018s-.029.032-.036.06c-.007.029-.011.068-.011.12s.004.091.011.119.019.048.036.06c.017.011.042.017.073.017z" fill="#b7305e" fill-rule="nonzero" transform="matrix(67.37517096945 0 0 67.37517096945 727.04740631675 677.11012314408)"/><path d="m1686.78 707.252v137.101c0 6.007-2.34 11.767-6.5 16.014-4.17 4.247-9.81 6.633-15.7 6.633-56.44 0-204.95 0-261.38 0-5.89 0-11.54-2.386-15.7-6.633s-6.5-10.007-6.5-16.014c0-44.074 0-137.101 0-137.101z" fill="#d9d9d9" transform="matrix(1.02031 0 0 1 -180.2651 -39)"/><circle cx="982.63048" cy="463.53836" fill="#d19c23" r="139.50016" stroke-width="4.35938"/><path d="m52 22.9h-37.5c-1.4 0-2.5 1.1-2.5 2.4v22.2c0 1.4 1.1 2.5 2.5 2.5h35c1.4 0 2.5-1.1 2.5-2.5z" fill="#231f20" fill-rule="nonzero" opacity=".2" transform="matrix(4.35938 0 0 4.35938 843.13032 324.0382)"/><path d="m52 20.9h-37.5c-1.4 0-2.5 1.1-2.5 2.4v22.2c0 1.4 1.1 2.5 2.5 2.5h35c1.4 0 2.5-1.1 2.5-2.5z" fill="#fff" fill-rule="nonzero" transform="matrix(4.35938 0 0 4.35938 843.13032 324.0382)"/><path d="m52 18.5c0-1.4-1.1-2.5-2.5-2.5h-12.5c-1.4 0-2.5 1.1-2.5 2.5 0 0-.3 2.3-2.5 2.5h20z" fill="#e0e0d1" fill-rule="nonzero" transform="matrix(4.35938 0 0 4.35938 843.13032 324.0382)"/><path d="m.273.013c-.046 0-.084-.004-.114-.013-.03-.008-.056-.021-.076-.04-.02-.02-.038-.046-.054-.079l.081-.076c.011.031.022.054.033.07.011.015.026.025.045.032.02.006.048.009.085.009.035 0 .062-.003.08-.011s.031-.02.038-.038c.007-.017.011-.043.011-.077 0-.025-.004-.044-.012-.057-.008-.014-.021-.025-.039-.034-.018-.01-.047-.021-.087-.034-.056-.019-.098-.036-.127-.053-.03-.017-.051-.037-.064-.06-.014-.023-.02-.053-.02-.09 0-.049.007-.089.021-.118s.037-.051.069-.064.075-.02.13-.02c.042 0 .077.004.105.011.027.007.051.019.07.036.02.016.037.04.053.069l-.075.081c-.011-.029-.022-.05-.032-.064-.011-.013-.025-.023-.043-.028-.018-.006-.044-.009-.078-.009-.032 0-.056.003-.073.009-.016.007-.027.017-.033.032-.007.015-.01.036-.01.065 0 .021.004.037.01.048.007.011.018.02.034.028.016.007.043.017.08.028.058.019.103.037.135.055s.055.04.069.067c.014.026.021.06.021.102 0 .055-.007.098-.022.13-.016.032-.04.056-.074.07-.033.015-.079.023-.137.023z" fill="#d19c23" fill-rule="nonzero" transform="matrix(101.92239249304 0 0 101.92239249304 954.78857597292 512.70117204364)"/><path d="m.25.013c-.05 0-.09-.009-.12-.028-.029-.018-.055-.05-.079-.096l.083-.068c.012.028.022.048.031.061s.02.021.032.027c.013.005.031.007.053.007.042 0 .073-.002.095-.007.021-.005.035-.013.043-.024s.012-.027.012-.049c0-.021-.003-.036-.01-.046-.006-.01-.017-.017-.034-.022-.016-.005-.044-.01-.082-.014-.074-.009-.127-.026-.159-.049-.033-.023-.05-.06-.05-.11 0-.041.008-.074.023-.098.015-.025.04-.043.073-.054.033-.012.078-.018.134-.018.054 0 .095.008.125.024s.057.044.081.084l-.076.074c-.014-.025-.025-.043-.035-.054-.01-.012-.022-.02-.035-.024-.014-.005-.034-.007-.06-.007-.034 0-.06.002-.078.006s-.03.012-.037.022-.01.025-.01.045c0 .014.004.025.011.032.007.008.018.013.033.017.014.003.037.007.067.011.057.009.102.019.134.032.032.012.055.03.069.053.014.024.021.056.021.096 0 .043-.008.077-.025.103-.016.025-.043.044-.08.056-.038.012-.088.018-.15.018z" fill="#d19c23" fill-rule="nonzero" transform="matrix(67.37517096945 0 0 67.37517096945 872.07684678036 677.11012314408)"/><path d="m.332.013c-.044 0-.08-.008-.107-.023-.026-.015-.046-.039-.058-.072-.013-.033-.019-.077-.019-.131v-.263h-.113v-.097h.113v-.154h.105v.154h.188v.097h-.188v.263c0 .034.002.06.007.079.005.018.013.031.024.039s.027.011.048.011c.022 0 .038-.001.048-.004s.018-.009.022-.017c.005-.007.01-.021.016-.04l.098.033c-.009.032-.021.056-.035.074-.015.018-.034.031-.057.039s-.054.012-.092.012z" fill="#d19c23" fill-rule="nonzero" transform="matrix(67.37517096945 0 0 67.37517096945 908.82694003642 677.11012314408)"/><path d="m.249.013c-.053 0-.096-.006-.128-.018-.031-.013-.054-.032-.069-.057-.014-.026-.021-.06-.021-.103 0-.049.007-.086.021-.113.014-.026.036-.045.068-.055.031-.011.074-.016.129-.016h.115v-.02c0-.026-.004-.045-.01-.059s-.018-.024-.034-.03c-.016-.005-.04-.008-.071-.008-.025 0-.045.002-.058.007-.013.006-.024.015-.031.028s-.014.034-.021.061l-.1-.025c.011-.043.025-.077.041-.103s.038-.045.065-.058c.028-.012.062-.019.104-.019.079 0 .135.017.169.051.033.034.05.085.05.155v.213c0 .024.003.041.007.049.005.008.016.012.031.012.005 0 .016-.001.033-.002v.096c-.007.001-.017.001-.03.001-.053 0-.089-.012-.109-.036-.016.017-.037.03-.061.037-.024.008-.054.012-.09.012zm0-.097c.031 0 .055-.003.071-.011.016-.007.028-.019.034-.037.006-.017.01-.043.01-.076v-.045h-.115c-.034 0-.059.002-.074.005-.014.004-.024.011-.03.023-.007.012-.01.032-.01.06 0 .022.003.039.01.05.006.011.017.019.033.024s.04.007.071.007z" fill="#d19c23" fill-rule="nonzero" transform="matrix(67.37517096945 0 0 67.37517096945 945.57703329249 677.11012314408)"/><path d="m.271.178c-.043 0-.076-.006-.101-.017-.026-.012-.051-.032-.075-.062l.076-.065c.017.02.031.033.043.039s.031.009.057.009c.031 0 .054-.004.071-.012.016-.007.028-.02.034-.039.007-.018.01-.045.01-.081v-.002c-.038.015-.078.022-.121.022-.057 0-.101-.01-.134-.03-.033-.021-.056-.053-.071-.097-.014-.045-.021-.104-.021-.179 0-.057.008-.103.022-.138.015-.034.039-.06.072-.076.032-.016.076-.025.132-.025.044 0 .085.007.121.019v-.006h.105v.504c0 .058-.007.104-.021.138-.015.034-.038.059-.07.075-.031.015-.075.023-.129.023zm-.006-.304c.043 0 .074-.011.093-.031.019-.021.028-.053.028-.097v-.171c0-.017-.009-.03-.029-.039s-.051-.014-.092-.014c-.033 0-.057.004-.074.013-.017.008-.029.022-.036.043-.007.02-.01.049-.01.086 0 .055.003.098.01.128.008.03.02.051.037.063s.041.019.073.019z" fill="#d19c23" fill-rule="nonzero" transform="matrix(67.37517096945 0 0 67.37517096945 982.32712654855 677.11012314408)"/><path d="m.275-.575c.059 0 .105.011.138.033.033.021.057.055.07.102.014.046.02.108.019.187h-.361c.002.044.007.078.016.102s.022.042.041.052.045.015.077.015c.024 0 .043-.002.058-.006.015-.005.029-.013.041-.025.013-.012.027-.03.044-.053l.084.055c-.03.047-.062.08-.096.098-.033.018-.077.028-.131.028-.06 0-.107-.01-.142-.03s-.06-.051-.075-.094c-.015-.042-.023-.099-.023-.17s.008-.127.023-.17c.015-.042.04-.074.075-.094s.082-.03.142-.03zm.12.226c-.004-.033-.01-.059-.018-.077-.008-.019-.02-.032-.037-.04-.016-.008-.037-.012-.065-.012-.03 0-.054.004-.072.012s-.032.021-.042.04c-.009.018-.015.044-.018.077z" fill="#d19c23" fill-rule="nonzero" transform="matrix(67.37517096945 0 0 67.37517096945 1019.07721980462 677.11012314408)"/><path d="m.268.013c-.056 0-.101-.01-.133-.03s-.056-.051-.07-.093-.021-.099-.021-.17c0-.072.007-.128.021-.171.014-.042.038-.074.07-.094s.077-.03.133-.03c.043 0 .084.008.122.022v-.174h.105v.727h-.105v-.006c-.035.012-.076.019-.122.019zm0-.097c.042 0 .073-.004.092-.014.02-.009.03-.022.03-.038v-.215c0-.044-.01-.076-.029-.096-.019-.021-.05-.031-.093-.031-.031 0-.056.006-.073.018s-.029.032-.036.06c-.007.029-.011.068-.011.12s.004.091.011.119.019.048.036.06c.017.011.042.017.073.017z" fill="#d19c23" fill-rule="nonzero" transform="matrix(67.37517096945 0 0 67.37517096945 1055.82731306068 677.11012314408)"/><circle cx="1349.07048" cy="463.53836" fill="#689b3d" r="139.50016" stroke-width="4.35938"/><path d="m52 22.9h-37.5c-1.4 0-2.5 1.1-2.5 2.4v22.2c0 1.4 1.1 2.5 2.5 2.5h35c1.4 0 2.5-1.1 2.5-2.5z" fill="#231f20" fill-rule="nonzero" opacity=".2" transform="matrix(4.35938 0 0 4.35938 1209.57032 324.0382)"/><path d="m52 20.9h-37.5c-1.4 0-2.5 1.1-2.5 2.4v22.2c0 1.4 1.1 2.5 2.5 2.5h35c1.4 0 2.5-1.1 2.5-2.5z" fill="#fff" fill-rule="nonzero" transform="matrix(4.35938 0 0 4.35938 1209.57032 324.0382)"/><path d="m52 18.5c0-1.4-1.1-2.5-2.5-2.5h-12.5c-1.4 0-2.5 1.1-2.5 2.5 0 0-.3 2.3-2.5 2.5h20z" fill="#e0e0d1" fill-rule="nonzero" transform="matrix(4.35938 0 0 4.35938 1209.57032 324.0382)"/><path d="m.286.013c-.062 0-.111-.013-.147-.038s-.061-.065-.077-.119-.024-.128-.024-.221c0-.092.008-.165.024-.219s.041-.094.077-.119.085-.037.147-.037c.044 0 .08.006.109.018.028.012.052.032.07.06.018.027.034.065.048.113l-.099.034c-.011-.036-.021-.063-.03-.081-.01-.018-.022-.03-.037-.037-.014-.007-.035-.011-.061-.011-.037 0-.065.009-.086.026s-.035.045-.044.085-.013.096-.013.168c0 .073.004.13.013.17s.023.068.044.085c.021.018.049.026.086.026.026 0 .047-.003.061-.01.015-.007.027-.019.037-.036.009-.018.019-.044.03-.08l.099.034c-.014.047-.03.084-.048.111-.018.028-.042.047-.07.06-.028.012-.064.018-.109.018z" fill="#689b3d" fill-rule="nonzero" transform="matrix(101.92239249304 0 0 101.92239249304 1321.22857597292 512.70117204364)"/><path d="m.289.013c-.061 0-.108-.01-.144-.03-.035-.02-.06-.051-.075-.093-.016-.042-.024-.099-.024-.171 0-.071.008-.128.024-.171.015-.042.041-.073.076-.093.036-.02.085-.03.147-.03.052 0 .095.01.126.029.032.018.062.052.091.1l-.087.051c-.015-.023-.028-.041-.039-.052-.011-.012-.024-.02-.037-.024-.014-.005-.032-.007-.054-.007-.038 0-.067.006-.087.018-.02.011-.035.031-.043.059s-.012.068-.012.12.004.092.012.12.022.048.042.06c.019.011.047.017.084.017.022 0 .04-.002.054-.007s.027-.013.039-.025.026-.029.042-.053l.086.053c-.03.048-.061.082-.093.101-.032.018-.075.028-.128.028z" fill="#689b3d" fill-rule="nonzero" transform="matrix(67.37517096945 0 0 67.37517096945 1183.39170689626 677.11012314408)"/><path d="m.273.013c-.057 0-.101-.01-.133-.03-.033-.02-.056-.051-.07-.094-.015-.042-.022-.099-.022-.17s.007-.127.022-.17c.014-.042.037-.074.07-.094.032-.02.076-.03.133-.03.056 0 .101.01.133.03.033.02.057.052.071.094.014.043.021.099.021.17s-.007.128-.021.17c-.014.043-.038.074-.071.094-.032.02-.077.03-.133.03zm0-.097c.031 0 .056-.006.073-.017.017-.012.029-.032.037-.06.007-.029.011-.068.011-.12 0-.051-.004-.091-.011-.119-.008-.029-.02-.049-.037-.06-.017-.012-.042-.018-.073-.018-.032 0-.056.006-.073.018-.017.011-.029.031-.036.06-.008.028-.011.068-.011.119 0 .052.003.091.011.12.007.028.019.048.036.06.017.011.041.017.073.017z" fill="#689b3d" fill-rule="nonzero" transform="matrix(67.37517096945 0 0 67.37517096945 1220.14180015232 677.11012314408)"/><path d="m.022 0v-.562h.104v-.003c.028-.006.049-.009.066-.009.023 0 .041.004.054.01s.026.018.038.036c.015-.018.031-.03.046-.036.014-.006.035-.01.06-.01.035 0 .061.007.08.022.02.014.033.038.041.071.009.033.013.08.013.139v.342h-.105v-.342c0-.048-.002-.082-.007-.1s-.014-.027-.027-.027c-.016 0-.027.003-.036.01-.008.007-.014.019-.018.036s-.006.041-.006.071v.352h-.104v-.336c0-.051-.003-.085-.008-.104-.005-.02-.014-.029-.027-.029-.015 0-.028.003-.036.01s-.015.019-.018.036c-.004.017-.006.041-.006.071v.352z" fill="#689b3d" fill-rule="nonzero" transform="matrix(67.37517096945 0 0 67.37517096945 1256.89189340839 677.11012314408)"/><path d="m.022 0v-.562h.104v-.003c.028-.006.049-.009.066-.009.023 0 .041.004.054.01s.026.018.038.036c.015-.018.031-.03.046-.036.014-.006.035-.01.06-.01.035 0 .061.007.08.022.02.014.033.038.041.071.009.033.013.08.013.139v.342h-.105v-.342c0-.048-.002-.082-.007-.1s-.014-.027-.027-.027c-.016 0-.027.003-.036.01-.008.007-.014.019-.018.036s-.006.041-.006.071v.352h-.104v-.336c0-.051-.003-.085-.008-.104-.005-.02-.014-.029-.027-.029-.015 0-.028.003-.036.01s-.015.019-.018.036c-.004.017-.006.041-.006.071v.352z" fill="#689b3d" fill-rule="nonzero" transform="matrix(67.37517096945 0 0 67.37517096945 1293.64198666445 677.11012314408)"/><path d="m.349-.562v.466h.159v.096h-.423v-.096h.16v-.369h-.115v-.097zm-.069-.082c-.03 0-.051-.005-.062-.016-.011-.01-.017-.03-.017-.058 0-.029.006-.048.017-.059.011-.01.032-.016.062-.016s.051.006.063.016c.011.011.017.03.017.059 0 .028-.006.048-.017.058-.012.011-.033.016-.063.016z" fill="#689b3d" fill-rule="nonzero" transform="matrix(67.37517096945 0 0 67.37517096945 1330.39207992052 677.11012314408)"/><path d="m.332.013c-.044 0-.08-.008-.107-.023-.026-.015-.046-.039-.058-.072-.013-.033-.019-.077-.019-.131v-.263h-.113v-.097h.113v-.154h.105v.154h.188v.097h-.188v.263c0 .034.002.06.007.079.005.018.013.031.024.039s.027.011.048.011c.022 0 .038-.001.048-.004s.018-.009.022-.017c.005-.007.01-.021.016-.04l.098.033c-.009.032-.021.056-.035.074-.015.018-.034.031-.057.039s-.054.012-.092.012z" fill="#689b3d" fill-rule="nonzero" transform="matrix(67.37517096945 0 0 67.37517096945 1367.14217317659 677.11012314408)"/><path d="m.332.013c-.044 0-.08-.008-.107-.023-.026-.015-.046-.039-.058-.072-.013-.033-.019-.077-.019-.131v-.263h-.113v-.097h.113v-.154h.105v.154h.188v.097h-.188v.263c0 .034.002.06.007.079.005.018.013.031.024.039s.027.011.048.011c.022 0 .038-.001.048-.004s.018-.009.022-.017c.005-.007.01-.021.016-.04l.098.033c-.009.032-.021.056-.035.074-.015.018-.034.031-.057.039s-.054.012-.092.012z" fill="#689b3d" fill-rule="nonzero" transform="matrix(67.37517096945 0 0 67.37517096945 1403.89226643265 677.11012314408)"/><path d="m.275-.575c.059 0 .105.011.138.033.033.021.057.055.07.102.014.046.02.108.019.187h-.361c.002.044.007.078.016.102s.022.042.041.052.045.015.077.015c.024 0 .043-.002.058-.006.015-.005.029-.013.041-.025.013-.012.027-.03.044-.053l.084.055c-.03.047-.062.08-.096.098-.033.018-.077.028-.131.028-.06 0-.107-.01-.142-.03s-.06-.051-.075-.094c-.015-.042-.023-.099-.023-.17s.008-.127.023-.17c.015-.042.04-.074.075-.094s.082-.03.142-.03zm.12.226c-.004-.033-.01-.059-.018-.077-.008-.019-.02-.032-.037-.04-.016-.008-.037-.012-.065-.012-.03 0-.054.004-.072.012s-.032.021-.042.04c-.009.018-.015.044-.018.077z" fill="#689b3d" fill-rule="nonzero" transform="matrix(67.37517096945 0 0 67.37517096945 1440.64235968871 677.11012314408)"/><path d="m.268.013c-.056 0-.101-.01-.133-.03s-.056-.051-.07-.093-.021-.099-.021-.17c0-.072.007-.128.021-.171.014-.042.038-.074.07-.094s.077-.03.133-.03c.043 0 .084.008.122.022v-.174h.105v.727h-.105v-.006c-.035.012-.076.019-.122.019zm0-.097c.042 0 .073-.004.092-.014.02-.009.03-.022.03-.038v-.215c0-.044-.01-.076-.029-.096-.019-.021-.05-.031-.093-.031-.031 0-.056.006-.073.018s-.029.032-.036.06c-.007.029-.011.068-.011.12s.004.091.011.119.019.048.036.06c.017.011.042.017.073.017z" fill="#689b3d" fill-rule="nonzero" transform="matrix(67.37517096945 0 0 67.37517096945 1477.39245294478 677.11012314408)"/><g transform="matrix(1 0 0 .9999995 -.0001 .00005)"><path d="m1016.28 211.574-37.503 75-37.5-75z" fill="#4d4d4d"/><path d="m218.777 258.174v-113.6h760v82" fill="none" stroke="#4d4d4d" stroke-width="25"/></g><g transform="matrix(1.00000095952 0 0 .9999995 .00063498 .00005)"><path d="m1386.11 211.574-37.5 75-37.5-75z" fill="#4d4d4d"/><path d="m1065.78 258.174v-113.6h282.83v82" fill="none" stroke="#4d4d4d" stroke-width="25"/></g><g transform="matrix(.99999907386 0 0 .9999995 -.000009922 .0016)"><path d="m945.123 790.426 37.5-75 37.497 75z" fill="#4d4d4d"/><path d="m615.812 743.826v113.6h366.811v-82" fill="none" stroke="#4d4d4d" stroke-width="25"/></g><g style="fill:#4d4d4d;fill-rule:nonzero;stroke:#4d4d4d;stroke-width:.62;stroke-linejoin:round;stroke-miterlimit:2" transform="matrix(1.60076 0 0 1.60076 -244.7802 -1319.69)"><path d="m450.665 891.33c-1.983 0-3.563-.269-4.739-.807-1.176-.539-2.344-1.502-3.506-2.89l3.57-3.06c.793.935 1.466 1.544 2.019 1.827.552.283 1.438.425 2.656.425 1.445 0 2.55-.177 3.315-.531s1.303-.964 1.615-1.828.468-2.132.468-3.803v-.085c-1.786.68-3.684 1.02-5.695 1.02-2.635 0-4.718-.475-6.248-1.424s-2.628-2.458-3.294-4.526c-.666-2.069-.998-4.86-.998-8.373 0-2.663.347-4.802 1.041-6.418.694-1.615 1.806-2.804 3.336-3.569s3.584-1.148 6.163-1.148c2.096 0 3.995.283 5.695.85v-.255h4.887v23.545c0 2.72-.333 4.873-.999 6.46s-1.742 2.748-3.23 3.485c-1.487.737-3.506 1.105-6.056 1.105zm-.297-14.237c2.011 0 3.463-.482 4.356-1.445.892-.964 1.339-2.465 1.339-4.505v-8.033c0-.765-.461-1.367-1.382-1.806s-2.358-.659-4.313-.659c-1.502 0-2.65.198-3.443.595s-1.353 1.07-1.679 2.019-.488 2.288-.488 4.016c0 2.607.17 4.604.51 5.993.34 1.388.906 2.372 1.699 2.953.794.581 1.927.872 3.401.872z"/><path d="m479.82 856.735v21.76h7.438v4.505h-19.763v-4.505h7.438v-17.255h-5.355v-4.505zm-3.23-3.825c-1.417 0-2.387-.248-2.911-.744s-.786-1.409-.786-2.741.262-2.245.786-2.741 1.494-.744 2.911-.744 2.394.248 2.932.744c.539.496.808 1.409.808 2.741s-.269 2.245-.808 2.741c-.538.496-1.515.744-2.932.744z"/><path d="m504.513 883.595c-2.069 0-3.726-.354-4.973-1.062-1.247-.709-2.16-1.835-2.741-3.379s-.871-3.577-.871-6.099v-12.325h-5.27v-4.505h5.27v-7.225h4.887v7.225h8.798v4.505h-8.798v12.325c0 1.587.113 2.812.34 3.676s.602 1.474 1.126 1.828 1.268.531 2.232.531c1.048 0 1.806-.071 2.273-.212.468-.142.808-.397 1.02-.766.213-.368.461-1.005.744-1.912l4.59 1.573c-.425 1.473-.977 2.627-1.657 3.463s-1.566 1.438-2.657 1.807c-1.091.368-2.528.552-4.313.552z"/><path d="m551.645 883.595c-2.493 0-4.484-.283-5.971-.85-1.488-.567-2.564-1.452-3.23-2.656s-.999-2.812-.999-4.824c0-2.267.326-4.016.978-5.249.651-1.232 1.707-2.096 3.166-2.592s3.478-.744 6.056-.744h5.355v-.935c0-1.19-.149-2.111-.446-2.763-.298-.651-.829-1.112-1.594-1.381s-1.87-.403-3.315-.403c-1.19 0-2.097.12-2.72.361s-1.105.673-1.445 1.296-.666 1.573-.977 2.848l-4.675-1.148c.51-2.012 1.147-3.627 1.912-4.845s1.785-2.118 3.06-2.699 2.89-.871 4.845-.871c3.683 0 6.311.786 7.884 2.359 1.572 1.572 2.359 3.988 2.359 7.246v9.945c0 1.162.113 1.927.34 2.295.226.368.708.553 1.445.553.226 0 .736-.029 1.53-.085v4.505c-.34.028-.808.042-1.403.042-2.465 0-4.165-.567-5.1-1.7-.765.822-1.714 1.41-2.847 1.764-1.134.354-2.536.531-4.208.531zm0-4.505c1.445 0 2.55-.17 3.315-.51s1.296-.921 1.594-1.742c.297-.822.446-2.012.446-3.57v-2.083h-5.355c-1.615 0-2.762.078-3.442.234s-1.162.51-1.445 1.062c-.284.553-.425 1.481-.425 2.784 0 1.048.141 1.835.425 2.359.283.524.8.899 1.551 1.126s1.863.34 3.336.34z"/><path d="m578.038 883.595c-2.635 0-4.711-.46-6.227-1.381s-2.606-2.373-3.272-4.357c-.666-1.983-.999-4.632-.999-7.947 0-3.343.333-6.007.999-7.99s1.756-3.442 3.272-4.377c1.516-.936 3.592-1.403 6.227-1.403 2.011 0 3.91.34 5.695 1.02v-8.16h4.887v34h-4.887v-.297c-1.644.595-3.542.892-5.695.892zm0-4.505c1.954 0 3.392-.22 4.313-.659s1.382-1.041 1.382-1.806v-10.03c0-2.04-.447-3.542-1.339-4.505-.893-.963-2.345-1.445-4.356-1.445-1.474 0-2.607.283-3.4.85-.794.567-1.36 1.509-1.7 2.826-.34 1.318-.51 3.181-.51 5.589s.17 4.264.51 5.568c.34 1.303.906 2.231 1.7 2.783.793.553 1.926.829 3.4.829z"/><path d="m603.538 883.595c-2.635 0-4.711-.46-6.227-1.381s-2.606-2.373-3.272-4.357c-.666-1.983-.999-4.632-.999-7.947 0-3.343.333-6.007.999-7.99s1.756-3.442 3.272-4.377c1.516-.936 3.592-1.403 6.227-1.403 2.011 0 3.91.34 5.695 1.02v-8.16h4.887v34h-4.887v-.297c-1.644.595-3.542.892-5.695.892zm0-4.505c1.954 0 3.392-.22 4.313-.659s1.382-1.041 1.382-1.806v-10.03c0-2.04-.447-3.542-1.339-4.505-.893-.963-2.345-1.445-4.356-1.445-1.474 0-2.607.283-3.4.85-.794.567-1.36 1.509-1.7 2.826-.34 1.318-.51 3.181-.51 5.589s.17 4.264.51 5.568c.34 1.303.906 2.231 1.7 2.783.793.553 1.926.829 3.4.829z"/></g><g style="fill:#4d4d4d;fill-rule:nonzero;stroke:#4d4d4d;stroke-width:.62;stroke-linejoin:round;stroke-miterlimit:2" transform="matrix(1.60076 0 0 1.60076 301.59 -1319.69)"><path d="m450.665 891.33c-1.983 0-3.563-.269-4.739-.807-1.176-.539-2.344-1.502-3.506-2.89l3.57-3.06c.793.935 1.466 1.544 2.019 1.827.552.283 1.438.425 2.656.425 1.445 0 2.55-.177 3.315-.531s1.303-.964 1.615-1.828.468-2.132.468-3.803v-.085c-1.786.68-3.684 1.02-5.695 1.02-2.635 0-4.718-.475-6.248-1.424s-2.628-2.458-3.294-4.526c-.666-2.069-.998-4.86-.998-8.373 0-2.663.347-4.802 1.041-6.418.694-1.615 1.806-2.804 3.336-3.569s3.584-1.148 6.163-1.148c2.096 0 3.995.283 5.695.85v-.255h4.887v23.545c0 2.72-.333 4.873-.999 6.46s-1.742 2.748-3.23 3.485c-1.487.737-3.506 1.105-6.056 1.105zm-.297-14.237c2.011 0 3.463-.482 4.356-1.445.892-.964 1.339-2.465 1.339-4.505v-8.033c0-.765-.461-1.367-1.382-1.806s-2.358-.659-4.313-.659c-1.502 0-2.65.198-3.443.595s-1.353 1.07-1.679 2.019-.488 2.288-.488 4.016c0 2.607.17 4.604.51 5.993.34 1.388.906 2.372 1.699 2.953.794.581 1.927.872 3.401.872z"/><path d="m479.82 856.735v21.76h7.438v4.505h-19.763v-4.505h7.438v-17.255h-5.355v-4.505zm-3.23-3.825c-1.417 0-2.387-.248-2.911-.744s-.786-1.409-.786-2.741.262-2.245.786-2.741 1.494-.744 2.911-.744 2.394.248 2.932.744c.539.496.808 1.409.808 2.741s-.269 2.245-.808 2.741c-.538.496-1.515.744-2.932.744z"/><path d="m504.513 883.595c-2.069 0-3.726-.354-4.973-1.062-1.247-.709-2.16-1.835-2.741-3.379s-.871-3.577-.871-6.099v-12.325h-5.27v-4.505h5.27v-7.225h4.887v7.225h8.798v4.505h-8.798v12.325c0 1.587.113 2.812.34 3.676s.602 1.474 1.126 1.828 1.268.531 2.232.531c1.048 0 1.806-.071 2.273-.212.468-.142.808-.397 1.02-.766.213-.368.461-1.005.744-1.912l4.59 1.573c-.425 1.473-.977 2.627-1.657 3.463s-1.566 1.438-2.657 1.807c-1.091.368-2.528.552-4.313.552z"/><path d="m553.515 883.595c-2.833 0-5.072-.46-6.715-1.381s-2.826-2.373-3.549-4.357c-.722-1.983-1.083-4.646-1.083-7.99 0-3.343.361-6.006 1.083-7.989.723-1.984 1.92-3.436 3.592-4.357 1.671-.921 3.952-1.381 6.842-1.381 2.465 0 4.434.439 5.908 1.318 1.473.878 2.89 2.436 4.25 4.675l-4.08 2.422c-.709-1.105-1.318-1.927-1.828-2.465s-1.084-.914-1.721-1.126c-.638-.213-1.481-.319-2.529-.319-1.757 0-3.11.276-4.059.829-.949.552-1.615 1.48-1.997 2.784-.383 1.303-.574 3.173-.574 5.609 0 2.437.191 4.307.574 5.611.382 1.303 1.027 2.231 1.934 2.783.906.553 2.224.829 3.952.829 1.02 0 1.863-.113 2.529-.34s1.275-.616 1.827-1.169c.553-.552 1.197-1.381 1.934-2.486l4.038 2.465c-1.417 2.267-2.869 3.839-4.357 4.718-1.487.878-3.478 1.317-5.971 1.317z"/><path d="m578.25 883.595c-2.635 0-4.71-.467-6.226-1.402s-2.607-2.395-3.273-4.378-.998-4.632-.998-7.948c0-3.314.332-5.964.998-7.947s1.757-3.442 3.273-4.377c1.516-.936 3.591-1.403 6.226-1.403s4.718.467 6.247 1.403c1.531.935 2.628 2.394 3.294 4.377s.999 4.633.999 7.947c0 3.316-.333 5.965-.999 7.948s-1.763 3.443-3.294 4.378c-1.529.935-3.612 1.402-6.247 1.402zm0-4.505c1.473 0 2.614-.276 3.421-.829.808-.552 1.382-1.487 1.722-2.805.34-1.317.51-3.18.51-5.589 0-2.408-.17-4.271-.51-5.588-.34-1.318-.914-2.253-1.722-2.805-.807-.553-1.948-.829-3.421-.829s-2.607.276-3.4.829c-.793.552-1.36 1.487-1.7 2.805-.34 1.317-.51 3.18-.51 5.588 0 2.409.17 4.272.51 5.589.34 1.318.907 2.253 1.7 2.805.793.553 1.927.829 3.4.829z"/><path d="m592.02 883v-26.265h4.888v-.17c1.275-.255 2.295-.382 3.06-.382 1.076 0 1.919.148 2.528.446.609.297 1.197.857 1.764 1.679.737-.822 1.452-1.382 2.146-1.679.694-.298 1.637-.446 2.827-.446 1.615 0 2.868.332 3.761.998.892.666 1.53 1.778 1.912 3.337.383 1.558.574 3.725.574 6.502v15.98h-4.887v-15.98c0-2.267-.114-3.825-.34-4.675-.227-.85-.652-1.275-1.275-1.275-.709 0-1.261.163-1.658.489s-.68.885-.85 1.678c-.17.794-.255 1.899-.255 3.316v16.447h-4.887v-15.725c0-2.352-.121-3.974-.362-4.866-.241-.893-.658-1.339-1.253-1.339-.737 0-1.304.163-1.7.489-.397.326-.68.885-.85 1.678-.171.794-.255 1.899-.255 3.316v16.447z"/><path d="m617.52 883v-26.265h4.888v-.17c1.275-.255 2.295-.382 3.06-.382 1.076 0 1.919.148 2.528.446.609.297 1.197.857 1.764 1.679.737-.822 1.452-1.382 2.146-1.679.694-.298 1.637-.446 2.827-.446 1.615 0 2.868.332 3.761.998.892.666 1.53 1.778 1.912 3.337.383 1.558.574 3.725.574 6.502v15.98h-4.887v-15.98c0-2.267-.114-3.825-.34-4.675-.227-.85-.652-1.275-1.275-1.275-.709 0-1.261.163-1.658.489s-.68.885-.85 1.678c-.17.794-.255 1.899-.255 3.316v16.447h-4.887v-15.725c0-2.352-.121-3.974-.362-4.866-.241-.893-.658-1.339-1.253-1.339-.737 0-1.304.163-1.7.489-.397.326-.68.885-.85 1.678-.171.794-.255 1.899-.255 3.316v16.447z"/><path d="m658.32 856.735v21.76h7.438v4.505h-19.763v-4.505h7.438v-17.255h-5.355v-4.505zm-3.23-3.825c-1.417 0-2.387-.248-2.911-.744s-.786-1.409-.786-2.741.262-2.245.786-2.741 1.494-.744 2.911-.744 2.394.248 2.933.744c.538.496.807 1.409.807 2.741s-.269 2.245-.807 2.741c-.539.496-1.516.744-2.933.744z"/><path d="m683.013 883.595c-2.069 0-3.726-.354-4.973-1.062-1.247-.709-2.16-1.835-2.741-3.379s-.871-3.577-.871-6.099v-12.325h-5.27v-4.505h5.27v-7.225h4.887v7.225h8.797v4.505h-8.797v12.325c0 1.587.113 2.812.34 3.676s.602 1.474 1.126 1.828 1.268.531 2.232.531c1.048 0 1.806-.071 2.273-.212.468-.142.808-.397 1.02-.766.213-.368.461-1.005.744-1.912l4.59 1.573c-.425 1.473-.977 2.627-1.657 3.463s-1.566 1.438-2.657 1.807c-1.091.368-2.528.552-4.313.552z"/></g><g style="fill:#4d4d4d;fill-rule:nonzero;stroke:#4d4d4d;stroke-width:.62;stroke-linejoin:round;stroke-miterlimit:2" transform="matrix(1.60076 0 0 1.60076 -44.34 -459.257)"><path d="m450.665 891.33c-1.983 0-3.563-.269-4.739-.807-1.176-.539-2.344-1.502-3.506-2.89l3.57-3.06c.793.935 1.466 1.544 2.019 1.827.552.283 1.438.425 2.656.425 1.445 0 2.55-.177 3.315-.531s1.303-.964 1.615-1.828.468-2.132.468-3.803v-.085c-1.786.68-3.684 1.02-5.695 1.02-2.635 0-4.718-.475-6.248-1.424s-2.628-2.458-3.294-4.526c-.666-2.069-.998-4.86-.998-8.373 0-2.663.347-4.802 1.041-6.418.694-1.615 1.806-2.804 3.336-3.569s3.584-1.148 6.163-1.148c2.096 0 3.995.283 5.695.85v-.255h4.887v23.545c0 2.72-.333 4.873-.999 6.46s-1.742 2.748-3.23 3.485c-1.487.737-3.506 1.105-6.056 1.105zm-.297-14.237c2.011 0 3.463-.482 4.356-1.445.892-.964 1.339-2.465 1.339-4.505v-8.033c0-.765-.461-1.367-1.382-1.806s-2.358-.659-4.313-.659c-1.502 0-2.65.198-3.443.595s-1.353 1.07-1.679 2.019-.488 2.288-.488 4.016c0 2.607.17 4.604.51 5.993.34 1.388.906 2.372 1.699 2.953.794.581 1.927.872 3.401.872z"/><path d="m479.82 856.735v21.76h7.438v4.505h-19.763v-4.505h7.438v-17.255h-5.355v-4.505zm-3.23-3.825c-1.417 0-2.387-.248-2.911-.744s-.786-1.409-.786-2.741.262-2.245.786-2.741 1.494-.744 2.911-.744 2.394.248 2.932.744c.539.496.808 1.409.808 2.741s-.269 2.245-.808 2.741c-.538.496-1.515.744-2.932.744z"/><path d="m504.513 883.595c-2.069 0-3.726-.354-4.973-1.062-1.247-.709-2.16-1.835-2.741-3.379s-.871-3.577-.871-6.099v-12.325h-5.27v-4.505h5.27v-7.225h4.887v7.225h8.798v4.505h-8.798v12.325c0 1.587.113 2.812.34 3.676s.602 1.474 1.126 1.828 1.268.531 2.232.531c1.048 0 1.806-.071 2.273-.212.468-.142.808-.397 1.02-.766.213-.368.461-1.005.744-1.912l4.59 1.573c-.425 1.473-.977 2.627-1.657 3.463s-1.566 1.438-2.657 1.807c-1.091.368-2.528.552-4.313.552z"/><path d="m551.645 883.595c-2.493 0-4.484-.283-5.971-.85-1.488-.567-2.564-1.452-3.23-2.656s-.999-2.812-.999-4.824c0-2.267.326-4.016.978-5.249.651-1.232 1.707-2.096 3.166-2.592s3.478-.744 6.056-.744h5.355v-.935c0-1.19-.149-2.111-.446-2.763-.298-.651-.829-1.112-1.594-1.381s-1.87-.403-3.315-.403c-1.19 0-2.097.12-2.72.361s-1.105.673-1.445 1.296-.666 1.573-.977 2.848l-4.675-1.148c.51-2.012 1.147-3.627 1.912-4.845s1.785-2.118 3.06-2.699 2.89-.871 4.845-.871c3.683 0 6.311.786 7.884 2.359 1.572 1.572 2.359 3.988 2.359 7.246v9.945c0 1.162.113 1.927.34 2.295.226.368.708.553 1.445.553.226 0 .736-.029 1.53-.085v4.505c-.34.028-.808.042-1.403.042-2.465 0-4.165-.567-5.1-1.7-.765.822-1.714 1.41-2.847 1.764-1.134.354-2.536.531-4.208.531zm0-4.505c1.445 0 2.55-.17 3.315-.51s1.296-.921 1.594-1.742c.297-.822.446-2.012.446-3.57v-2.083h-5.355c-1.615 0-2.762.078-3.442.234s-1.162.51-1.445 1.062c-.284.553-.425 1.481-.425 2.784 0 1.048.141 1.835.425 2.359.283.524.8.899 1.551 1.126s1.863.34 3.336.34z"/><path d="m578.038 883.595c-2.635 0-4.711-.46-6.227-1.381s-2.606-2.373-3.272-4.357c-.666-1.983-.999-4.632-.999-7.947 0-3.343.333-6.007.999-7.99s1.756-3.442 3.272-4.377c1.516-.936 3.592-1.403 6.227-1.403 2.011 0 3.91.34 5.695 1.02v-8.16h4.887v34h-4.887v-.297c-1.644.595-3.542.892-5.695.892zm0-4.505c1.954 0 3.392-.22 4.313-.659s1.382-1.041 1.382-1.806v-10.03c0-2.04-.447-3.542-1.339-4.505-.893-.963-2.345-1.445-4.356-1.445-1.474 0-2.607.283-3.4.85-.794.567-1.36 1.509-1.7 2.826-.34 1.318-.51 3.181-.51 5.589s.17 4.264.51 5.568c.34 1.303.906 2.231 1.7 2.783.793.553 1.926.829 3.4.829z"/><path d="m603.538 883.595c-2.635 0-4.711-.46-6.227-1.381s-2.606-2.373-3.272-4.357c-.666-1.983-.999-4.632-.999-7.947 0-3.343.333-6.007.999-7.99s1.756-3.442 3.272-4.377c1.516-.936 3.592-1.403 6.227-1.403 2.011 0 3.91.34 5.695 1.02v-8.16h4.887v34h-4.887v-.297c-1.644.595-3.542.892-5.695.892zm0-4.505c1.954 0 3.392-.22 4.313-.659s1.382-1.041 1.382-1.806v-10.03c0-2.04-.447-3.542-1.339-4.505-.893-.963-2.345-1.445-4.356-1.445-1.474 0-2.607.283-3.4.85-.794.567-1.36 1.509-1.7 2.826-.34 1.318-.51 3.181-.51 5.589s.17 4.264.51 5.568c.34 1.303.906 2.231 1.7 2.783.793.553 1.926.829 3.4.829z"/></g><path d="m.332.013c-.044 0-.08-.008-.107-.023-.026-.015-.046-.039-.058-.072-.013-.033-.019-.077-.019-.131v-.263h-.113v-.097h.113v-.154h.105v.154h.188v.097h-.188v.263c0 .034.002.06.007.079.005.018.013.031.024.039s.027.011.048.011c.022 0 .038-.001.048-.004s.018-.009.022-.017c.005-.007.01-.021.016-.04l.098.033c-.009.032-.021.056-.035.074-.015.018-.034.031-.057.039s-.054.012-.092.012z" fill="#fff" fill-rule="nonzero" transform="matrix(50 0 0 50 1290.412 804.29)"/><path d="m.085 0v-.562h.104v.047c.015-.016.033-.03.056-.042s.048-.018.075-.018c.035 0 .064.005.087.015.023.009.043.024.06.045.016.021.031.05.045.087l-.094.043c-.008-.027-.016-.047-.023-.06-.008-.012-.017-.021-.028-.026s-.027-.007-.047-.007c-.047 0-.081.016-.101.048-.02.033-.03.08-.03.142v.288z" fill="#fff" fill-rule="nonzero" transform="matrix(50 0 0 50 1317.685 804.29)"/><path d="m.249.013c-.053 0-.096-.006-.128-.018-.031-.013-.054-.032-.069-.057-.014-.026-.021-.06-.021-.103 0-.049.007-.086.021-.113.014-.026.036-.045.068-.055.031-.011.074-.016.129-.016h.115v-.02c0-.026-.004-.045-.01-.059s-.018-.024-.034-.03c-.016-.005-.04-.008-.071-.008-.025 0-.045.002-.058.007-.013.006-.024.015-.031.028s-.014.034-.021.061l-.1-.025c.011-.043.025-.077.041-.103s.038-.045.065-.058c.028-.012.062-.019.104-.019.079 0 .135.017.169.051.033.034.05.085.05.155v.213c0 .024.003.041.007.049.005.008.016.012.031.012.005 0 .016-.001.033-.002v.096c-.007.001-.017.001-.03.001-.053 0-.089-.012-.109-.036-.016.017-.037.03-.061.037-.024.008-.054.012-.09.012zm0-.097c.031 0 .055-.003.071-.011.016-.007.028-.019.034-.037.006-.017.01-.043.01-.076v-.045h-.115c-.034 0-.059.002-.074.005-.014.004-.024.011-.03.023-.007.012-.01.032-.01.06 0 .022.003.039.01.05.006.011.017.019.033.024s.04.007.071.007z" fill="#fff" fill-rule="nonzero" transform="matrix(50 0 0 50 1344.958 804.29)"/><path d="m.289.013c-.061 0-.108-.01-.144-.03-.035-.02-.06-.051-.075-.093-.016-.042-.024-.099-.024-.171 0-.071.008-.128.024-.171.015-.042.041-.073.076-.093.036-.02.085-.03.147-.03.052 0 .095.01.126.029.032.018.062.052.091.1l-.087.051c-.015-.023-.028-.041-.039-.052-.011-.012-.024-.02-.037-.024-.014-.005-.032-.007-.054-.007-.038 0-.067.006-.087.018-.02.011-.035.031-.043.059s-.012.068-.012.12.004.092.012.12.022.048.042.06c.019.011.047.017.084.017.022 0 .04-.002.054-.007s.027-.013.039-.025.026-.029.042-.053l.086.053c-.03.048-.061.082-.093.101-.032.018-.075.028-.128.028z" fill="#fff" fill-rule="nonzero" transform="matrix(50 0 0 50 1372.231 804.29)"/><path d="m.19 0h-.105v-.727h.105v.378h.002l.183-.213h.126l-.216.259.252.303h-.126l-.216-.253h-.005z" fill="#fff" fill-rule="nonzero" transform="matrix(50 0 0 50 1399.503 804.29)"/><path d="m.275-.575c.059 0 .105.011.138.033.033.021.057.055.07.102.014.046.02.108.019.187h-.361c.002.044.007.078.016.102s.022.042.041.052.045.015.077.015c.024 0 .043-.002.058-.006.015-.005.029-.013.041-.025.013-.012.027-.03.044-.053l.084.055c-.03.047-.062.08-.096.098-.033.018-.077.028-.131.028-.06 0-.107-.01-.142-.03s-.06-.051-.075-.094c-.015-.042-.023-.099-.023-.17s.008-.127.023-.17c.015-.042.04-.074.075-.094s.082-.03.142-.03zm.12.226c-.004-.033-.01-.059-.018-.077-.008-.019-.02-.032-.037-.04-.016-.008-.037-.012-.065-.012-.03 0-.054.004-.072.012s-.032.021-.042.04c-.009.018-.015.044-.018.077z" fill="#fff" fill-rule="nonzero" transform="matrix(50 0 0 50 1426.776 804.29)"/><path d="m.268.013c-.056 0-.101-.01-.133-.03s-.056-.051-.07-.093-.021-.099-.021-.17c0-.072.007-.128.021-.171.014-.042.038-.074.07-.094s.077-.03.133-.03c.043 0 .084.008.122.022v-.174h.105v.727h-.105v-.006c-.035.012-.076.019-.122.019zm0-.097c.042 0 .073-.004.092-.014.02-.009.03-.022.03-.038v-.215c0-.044-.01-.076-.029-.096-.019-.021-.05-.031-.093-.031-.031 0-.056.006-.073.018s-.029.032-.036.06c-.007.029-.011.068-.011.12s.004.091.011.119.019.048.036.06c.017.011.042.017.073.017z" fill="#fff" fill-rule="nonzero" transform="matrix(50 0 0 50 1454.049 804.29)"/></svg>