<?xml version="1.0" encoding="UTF-8" standalone="no"?>
<!DOCTYPE svg PUBLIC "-//W3C//DTD SVG 1.1//EN" "http://www.w3.org/Graphics/SVG/1.1/DTD/svg11.dtd">
<svg width="100%" height="100%" viewBox="0 0 897 350" version="1.1" xmlns="http://www.w3.org/2000/svg" xmlns:xlink="http://www.w3.org/1999/xlink" xml:space="preserve" xmlns:serif="http://www.serif.com/" style="fill-rule:evenodd;clip-rule:evenodd;stroke-linecap:round;stroke-linejoin:round;stroke-miterlimit:1.5;">
    <g transform="matrix(1,0,0,1,-511.698,-997.663)">
        <g id="Logo-sdelquin-plate" serif:id="Logo sdelquin plate" transform="matrix(1.21821,0,0,1.21821,-209.482,-258.312)">
            <g transform="matrix(0.807018,0,0,1,237.719,-119)">
                <path d="M1351,1207.4C1351,1175.72 1319.13,1150 1279.87,1150L510.126,1150C470.871,1150 439,1175.72 439,1207.4L439,1379.6C439,1411.28 470.871,1437 510.126,1437L1279.87,1437C1319.13,1437 1351,1411.28 1351,1379.6L1351,1207.4Z" style="fill:rgb(64,64,64);"/>
            </g>
            <g id="Logo-sdelquin" serif:id="Logo sdelquin" transform="matrix(1,0,0,1,66.1966,178.082)">
                <g transform="matrix(0.44641,0,0,0.564868,-378.41,505.548)">
                    <path d="M3207,742L3154,886L3229,886L3206,996L3325,820.419L3256,820.419L3288,742L3207,742Z" style="fill:none;stroke:rgb(255,75,216);stroke-width:24.55px;"/>
                </g>
                <g>
                    <g transform="matrix(1.56013,0,0,1.56013,84.9364,-758.304)">
                        <g transform="matrix(118.664,0,0,118.664,326,1163)">
                            <path d="M0.184,0.01C0.131,0.01 0.09,-0.005 0.063,-0.036C0.036,-0.066 0.022,-0.109 0.022,-0.166L0.022,-0.206L0.126,-0.206L0.126,-0.158C0.126,-0.113 0.145,-0.09 0.183,-0.09C0.202,-0.09 0.216,-0.095 0.226,-0.107C0.235,-0.117 0.24,-0.135 0.24,-0.16C0.24,-0.189 0.233,-0.215 0.22,-0.238C0.207,-0.26 0.182,-0.287 0.146,-0.318C0.101,-0.358 0.069,-0.394 0.051,-0.427C0.033,-0.459 0.024,-0.495 0.024,-0.536C0.024,-0.591 0.038,-0.634 0.066,-0.665C0.094,-0.695 0.135,-0.71 0.188,-0.71C0.241,-0.71 0.281,-0.695 0.308,-0.665C0.335,-0.634 0.348,-0.591 0.348,-0.534L0.348,-0.505L0.244,-0.505L0.244,-0.541C0.244,-0.565 0.239,-0.583 0.23,-0.594C0.221,-0.604 0.207,-0.61 0.189,-0.61C0.152,-0.61 0.134,-0.588 0.134,-0.543C0.134,-0.518 0.141,-0.494 0.155,-0.472C0.168,-0.45 0.193,-0.423 0.229,-0.392C0.275,-0.352 0.307,-0.316 0.324,-0.283C0.341,-0.25 0.35,-0.212 0.35,-0.168C0.35,-0.111 0.336,-0.067 0.308,-0.036C0.279,-0.005 0.238,0.01 0.184,0.01Z" style="fill:rgb(204,204,204);fill-rule:nonzero;"/>
                        </g>
                        <g transform="matrix(118.664,0,0,118.664,370.143,1163)">
                            <path d="M0.041,-0.7L0.209,-0.7C0.264,-0.7 0.305,-0.685 0.332,-0.656C0.359,-0.627 0.373,-0.584 0.373,-0.527L0.373,-0.173C0.373,-0.116 0.359,-0.073 0.332,-0.044C0.305,-0.015 0.264,-0 0.209,-0L0.041,-0L0.041,-0.7ZM0.207,-0.1C0.225,-0.1 0.239,-0.105 0.249,-0.116C0.258,-0.127 0.263,-0.144 0.263,-0.168L0.263,-0.532C0.263,-0.556 0.258,-0.573 0.249,-0.584C0.239,-0.595 0.225,-0.6 0.207,-0.6L0.151,-0.6L0.151,-0.1L0.207,-0.1Z" style="fill:rgb(204,204,204);fill-rule:nonzero;"/>
                        </g>
                        <g transform="matrix(118.664,0,0,118.664,418.321,1163)">
                            <path d="M0.041,-0.7L0.341,-0.7L0.341,-0.6L0.151,-0.6L0.151,-0.415L0.302,-0.415L0.302,-0.315L0.151,-0.315L0.151,-0.1L0.341,-0.1L0.341,-0L0.041,-0L0.041,-0.7Z" style="fill:rgb(204,204,204);fill-rule:nonzero;"/>
                        </g>
                        <g transform="matrix(118.664,0,0,118.664,461.396,1163)">
                            <path d="M0.041,-0.7L0.151,-0.7L0.151,-0.1L0.332,-0.1L0.332,-0L0.041,-0L0.041,-0.7Z" style="fill:rgb(204,204,204);fill-rule:nonzero;"/>
                        </g>
                        <g transform="matrix(118.664,0,0,118.664,501.741,1163)">
                            <path d="M0.365,0.065C0.315,0.065 0.284,0.043 0.273,-0.002C0.252,0.006 0.228,0.01 0.2,0.01C0.146,0.01 0.105,-0.005 0.076,-0.036C0.047,-0.067 0.033,-0.11 0.033,-0.166L0.033,-0.534C0.033,-0.59 0.047,-0.633 0.076,-0.664C0.105,-0.695 0.146,-0.71 0.2,-0.71C0.254,-0.71 0.295,-0.695 0.324,-0.664C0.353,-0.633 0.367,-0.59 0.367,-0.534L0.367,-0.166C0.367,-0.119 0.357,-0.081 0.336,-0.051C0.34,-0.044 0.345,-0.04 0.351,-0.038C0.357,-0.036 0.366,-0.035 0.377,-0.035L0.394,-0.035L0.394,0.065L0.365,0.065ZM0.2,-0.09C0.238,-0.09 0.257,-0.113 0.257,-0.159L0.257,-0.541C0.257,-0.587 0.238,-0.61 0.2,-0.61C0.162,-0.61 0.143,-0.587 0.143,-0.541L0.143,-0.159C0.143,-0.113 0.162,-0.09 0.2,-0.09Z" style="fill:rgb(204,204,204);fill-rule:nonzero;"/>
                        </g>
                        <g transform="matrix(118.664,0,0,118.664,549.207,1163)">
                            <path d="M0.201,0.01C0.148,0.01 0.107,-0.005 0.079,-0.036C0.051,-0.066 0.037,-0.109 0.037,-0.166L0.037,-0.7L0.147,-0.7L0.147,-0.158C0.147,-0.134 0.152,-0.117 0.162,-0.106C0.171,-0.095 0.185,-0.09 0.203,-0.09C0.221,-0.09 0.235,-0.095 0.245,-0.106C0.254,-0.117 0.259,-0.134 0.259,-0.158L0.259,-0.7L0.365,-0.7L0.365,-0.166C0.365,-0.109 0.351,-0.066 0.323,-0.036C0.295,-0.005 0.254,0.01 0.201,0.01Z" style="fill:rgb(204,204,204);fill-rule:nonzero;"/>
                        </g>
                    </g>
                    <g transform="matrix(1.56013,0,0,1.56013,609.934,-758.304)">
                        <g transform="matrix(118.664,0,0,118.664,326,1163)">
                            <path d="M0.041,-0.7L0.179,-0.7L0.286,-0.281L0.288,-0.281L0.288,-0.7L0.386,-0.7L0.386,-0L0.273,-0L0.141,-0.511L0.139,-0.511L0.139,-0L0.041,-0L0.041,-0.7Z" style="fill:rgb(204,204,204);fill-rule:nonzero;"/>
                        </g>
                    </g>
                </g>
            </g>
            <g transform="matrix(1,0,0,1,1.13687e-13,-2.5)">
                <g transform="matrix(2.22663e-17,-0.363636,0.363636,2.22663e-17,253.455,1238.82)">
                    <path d="M452,1019.24L452,1084.76C435.671,1082.78 423,1068.86 423,1052C423,1035.14 435.671,1021.22 452,1019.24ZM460,1019.24C476.329,1021.22 489,1035.14 489,1052C489,1068.86 476.329,1082.78 460,1084.76L460,1019.24Z" style="fill:rgb(166,166,166);"/>
                </g>
                <g transform="matrix(2.22663e-17,-0.363636,0.363636,2.22663e-17,253.455,1446.82)">
                    <path d="M452,1019.24L452,1084.76C435.671,1082.78 423,1068.86 423,1052C423,1035.14 435.671,1021.22 452,1019.24ZM460,1019.24C476.329,1021.22 489,1035.14 489,1052C489,1068.86 476.329,1082.78 460,1084.76L460,1019.24Z" style="fill:rgb(166,166,166);"/>
                </g>
                <g transform="matrix(2.22663e-17,-0.363636,0.363636,2.22663e-17,901.455,1446.82)">
                    <path d="M452,1019.24L452,1084.76C435.671,1082.78 423,1068.86 423,1052C423,1035.14 435.671,1021.22 452,1019.24ZM460,1019.24C476.329,1021.22 489,1035.14 489,1052C489,1068.86 476.329,1082.78 460,1084.76L460,1019.24Z" style="fill:rgb(166,166,166);"/>
                </g>
                <g transform="matrix(2.22663e-17,-0.363636,0.363636,2.22663e-17,901.455,1238.82)">
                    <path d="M452,1019.24L452,1084.76C435.671,1082.78 423,1068.86 423,1052C423,1035.14 435.671,1021.22 452,1019.24ZM460,1019.24C476.329,1021.22 489,1035.14 489,1052C489,1068.86 476.329,1082.78 460,1084.76L460,1019.24Z" style="fill:rgb(166,166,166);"/>
                </g>
            </g>
        </g>
    </g>
</svg>
